<?xml version="1.0" encoding="UTF-8" standalone="no"?>
<!-- Created with Inkscape (http://www.inkscape.org/) -->

<svg
   xmlns:dc="http://purl.org/dc/elements/1.1/"
   xmlns:cc="http://creativecommons.org/ns#"
   xmlns:rdf="http://www.w3.org/1999/02/22-rdf-syntax-ns#"
   xmlns:svg="http://www.w3.org/2000/svg"
   xmlns="http://www.w3.org/2000/svg"
   xmlns:xlink="http://www.w3.org/1999/xlink"
   xmlns:sodipodi="http://sodipodi.sourceforge.net/DTD/sodipodi-0.dtd"
   xmlns:inkscape="http://www.inkscape.org/namespaces/inkscape"
   width="600px"
   height="300px"
   viewBox="0 0 600 300"
   version="1.1"
   id="SVGRoot"
   inkscape:version="0.92.4 (f8dce91, 2019-08-02)"
   sodipodi:docname="Digital Marketing &amp; SEO.svg">
  <defs
     id="defs332">
    <linearGradient
       inkscape:collect="always"
       xlink:href="#linearGradient83516"
       id="linearGradient83518"
       x1="-203.93333"
       y1="-44.781616"
       x2="-71.377075"
       y2="47.035416"
       gradientUnits="userSpaceOnUse"
       gradientTransform="matrix(4.3840582,0,0,3.7534031,934.9839,168.51313)" />
    <linearGradient
       inkscape:collect="always"
       id="linearGradient83516">
      <stop
         style="stop-color:#ffaaaa;stop-opacity:1;"
         offset="0"
         id="stop83512" />
      <stop
         style="stop-color:#ffaaaa;stop-opacity:0;"
         offset="1"
         id="stop83514" />
    </linearGradient>
  </defs>
  <sodipodi:namedview
     id="base"
     pagecolor="#ffffff"
     bordercolor="#666666"
     borderopacity="1.0"
     inkscape:pageopacity="0.0"
     inkscape:pageshadow="2"
     inkscape:zoom="0.7"
     inkscape:cx="263.56039"
     inkscape:cy="218.43496"
     inkscape:document-units="px"
     inkscape:current-layer="g1503"
     showgrid="false"
     inkscape:window-width="1280"
     inkscape:window-height="751"
     inkscape:window-x="0"
     inkscape:window-y="25"
     inkscape:window-maximized="1"
     inkscape:snap-global="false" />
  <metadata
     id="metadata335">
    <rdf:RDF>
      <cc:Work
         rdf:about="">
        <dc:format>image/svg+xml</dc:format>
        <dc:type
           rdf:resource="http://purl.org/dc/dcmitype/StillImage" />
        <dc:title></dc:title>
      </cc:Work>
    </rdf:RDF>
  </metadata>
  <g
     inkscape:label="Layer 1"
     inkscape:groupmode="layer"
     id="layer1">
    <rect
       style="fill:url(#linearGradient83518);fill-opacity:1;stroke:#000000;stroke-width:0.05366404"
       id="rect83510"
       width="600.85345"
       height="299.91254"
       x="-0.82983643"
       y="0.45449227" />
    <text
       id="text455"
       y="198.99652"
       x="200.07768"
       style="font-style:normal;font-weight:normal;font-size:40px;line-height:1.25;font-family:sans-serif;letter-spacing:0px;word-spacing:0px;fill:#000000;fill-opacity:1;stroke:none"
       xml:space="preserve"><tspan
         style="font-style:normal;font-variant:normal;font-weight:normal;font-stretch:normal;font-family:Dyuthi;-inkscape-font-specification:Dyuthi;fill:#000000"
         y="198.99652"
         x="200.07768"
         id="tspan453"
         sodipodi:role="line">Digital Marketing &amp; SEO</tspan></text>
    <text
       id="text459"
       y="194.36563"
       x="200.07768"
       style="font-style:normal;font-weight:normal;font-size:40px;line-height:1.25;font-family:sans-serif;letter-spacing:0px;word-spacing:0px;fill:#ffffff;fill-opacity:1;stroke:none"
       xml:space="preserve"><tspan
         style="font-style:normal;font-variant:normal;font-weight:normal;font-stretch:normal;font-family:Dyuthi;-inkscape-font-specification:Dyuthi;fill:#ffffff"
         y="194.36563"
         x="200.07768"
         id="tspan457"
         sodipodi:role="line">Digital Marketing &amp; SEO</tspan></text>
    <text
       xml:space="preserve"
       style="font-style:normal;font-weight:normal;font-size:40px;line-height:1.25;font-family:sans-serif;letter-spacing:0px;word-spacing:0px;fill:#ff0000;fill-opacity:1;stroke:none"
       x="200.07768"
       y="196.99652"
       id="text67"><tspan
         sodipodi:role="line"
         id="tspan65"
         x="200.07768"
         y="196.99652"
         style="font-style:normal;font-variant:normal;font-weight:normal;font-stretch:normal;font-family:Dyuthi;-inkscape-font-specification:Dyuthi;fill:#ff0000">Digital Marketing &amp; SEO</tspan></text>
    <g
       id="g783"
       transform="translate(250.98821,-136.97408)">
</g>
    <g
       id="g785"
       transform="translate(250.98821,-136.97408)">
</g>
    <g
       id="g787"
       transform="translate(250.98821,-136.97408)">
</g>
    <g
       id="g789"
       transform="translate(250.98821,-136.97408)">
</g>
    <g
       id="g791"
       transform="translate(250.98821,-136.97408)">
</g>
    <g
       id="g793"
       transform="translate(250.98821,-136.97408)">
</g>
    <g
       id="g795"
       transform="translate(250.98821,-136.97408)">
</g>
    <g
       id="g797"
       transform="translate(250.98821,-136.97408)">
</g>
    <g
       id="g799"
       transform="translate(250.98821,-136.97408)">
</g>
    <g
       id="g801"
       transform="translate(250.98821,-136.97408)">
</g>
    <g
       id="g803"
       transform="translate(250.98821,-136.97408)">
</g>
    <g
       id="g805"
       transform="translate(250.98821,-136.97408)">
</g>
    <g
       id="g807"
       transform="translate(250.98821,-136.97408)">
</g>
    <g
       id="g809"
       transform="translate(250.98821,-136.97408)">
</g>
    <g
       id="g811"
       transform="translate(250.98821,-136.97408)">
</g>
    <g
       id="g1503"
       transform="matrix(0.25920483,0,0,0.25920483,213.10291,116.9913)">
      <g
         id="g1531"
         transform="translate(-55.113611,-5.5113611)">
        <path
           style="fill:#eef1eb;stroke-width:1.33333325"
           inkscape:connector-curvature="0"
           d="m -667.09529,98.721729 h 56.88541 v 68.265621 h -56.88541 z m 0,0"
           id="path1363" />
        <path
           style="fill:#345a84;stroke-width:1.33333325"
           inkscape:connector-curvature="0"
           d="m -530.56406,201.12276 h 56.89062 v 45.60415 c 0,12.51563 -10.15104,22.66147 -22.66666,22.66147 h -34.22396 z m 0,0"
           id="path1365" />
        <path
           style="fill:#fbb429;fill-opacity:1;stroke-width:1.33333325"
           inkscape:connector-curvature="0"
           d="m -303.00679,-71.94492 c 0,37.703116 -30.5677,68.2656195 -68.26562,68.2656195 -37.70312,0 -68.27082,-30.5625035 -68.27082,-68.2656195 0,-37.70312 30.5677,-68.26562 68.27082,-68.26562 37.69792,0 68.26562,30.5625 68.26562,68.26562 z m 0,0"
           id="path1367" />
        <path
           style="fill:#5dc1d8;fill-opacity:1;stroke-width:1.33333325"
           inkscape:connector-curvature="0"
           d="M -446.41303,90.404023 -234.74117,-3.6793005 V 269.38838 l -211.67185,-94.08333 z m 0,0"
           id="path1369" />
        <path
           style="fill:#fe3745;fill-opacity:1;stroke-width:1.33333325"
           inkscape:connector-curvature="0"
           d="m -587.45468,201.12276 h 68.27083 V 326.279 h -68.27083 z m 0,0"
           id="path1371" />
        <path
           style="fill:#fe3745;fill-opacity:1;stroke-width:1.33333325"
           inkscape:connector-curvature="0"
           d="m -86.829732,-197.10116 -91.020818,91.02082 v 79.645828 h 79.645819 l 91.0208305,-91.020828 z m -39.822908,136.531239 c -9.42187,0 -17.0677,-7.640626 -17.0677,-17.062503 0,-9.427081 7.64583,-17.067706 17.0677,-17.067706 9.42708,0 17.06771,7.640625 17.06771,17.067706 0,9.42709 -7.64063,17.062503 -17.06771,17.062503 z m 0,0"
           id="path1373" />
        <path
           style="fill:#fbb429;fill-opacity:1;stroke-width:1.33333325"
           inkscape:connector-curvature="0"
           d="m -588.9078,53.211307 h 116.68749 c 18.04687,0 32.67708,14.630212 32.67708,32.67709 v 93.937483 c 0,18.04688 -14.63021,32.67708 -32.67708,32.67708 H -588.9078 c -18.04687,0 -32.67708,-14.6302 -32.67708,-32.67708 V 85.888397 c 0,-18.046878 14.63021,-32.67709 32.67708,-32.67709 z m 0,0"
           id="path1375" />
        <path
           style="fill:#000000;fill-opacity:0;stroke-width:1.33333325"
           inkscape:connector-curvature="0"
           d="M -234.74117,-3.6793005 -303.00679,26.664443 V 239.04462 l 68.26562,30.34376 z m 0,0"
           id="path1377" />
        <path
           style="fill:#5dc1d8;fill-opacity:1;stroke-width:1.33333325"
           inkscape:connector-curvature="0"
           d="m -200.27243,327.43004 80.45313,-80.45313 112.6301862,112.63021 -80.4531122,80.45311 z m 0,0"
           id="path1379" />
        <path
           style="fill:#5dc1d8;fill-opacity:1;stroke-width:1.33333325"
           inkscape:connector-curvature="0"
           d="m -119.8141,246.96129 8.04688,104.59895 104.5833195,8.04166 z m 0,0"
           id="path1381" />
        <g
           style="fill:#fbb429;fill-opacity:1"
           id="g1391"
           transform="matrix(1.3333332,0,0,1.3333332,-678.4755,-208.47616)">
          <path
             inkscape:connector-curvature="0"
             d="m 477.86719,204.79687 c 0,14.14063 -11.46094,25.60157 -25.59766,25.60157 -14.14062,0 -25.60156,-11.46094 -25.60156,-25.60157 0,-14.13671 11.46094,-25.59765 25.60156,-25.59765 14.13672,0 25.59766,11.46094 25.59766,25.59765 z m 0,0"
             id="path1383"
             style="fill:#fbb429;fill-opacity:1" />
          <path
             inkscape:connector-curvature="0"
             d="m 443.89844,238.93359 h 16.75 c 14.22265,0.004 25.7539,11.53516 25.7539,25.76172 v 42.50391 h -68.26953 v -42.50391 c 0,-14.23047 11.53516,-25.76172 25.76563,-25.76172 z m 0,0"
             id="path1385"
             style="fill:#fbb429;fill-opacity:1" />
          <path
             inkscape:connector-curvature="0"
             d="m 409.60156,213.33203 c 0,9.42578 -7.64062,17.06641 -17.0664,17.06641 -9.42579,0 -17.06641,-7.64063 -17.06641,-17.06641 0,-9.42578 7.64062,-17.06641 17.06641,-17.06641 9.42578,0 17.0664,7.64063 17.0664,17.06641 z m 0,0"
             id="path1387"
             style="fill:#fbb429;fill-opacity:1" />
          <path
             inkscape:connector-curvature="0"
             d="m 392.53516,238.93359 c 14.13671,0 25.60156,11.46094 25.60156,25.59766 v 25.60156 h -51.20313 v -25.60156 c 0,-14.13672 11.46094,-25.59766 25.60157,-25.59766 z m 0,0"
             id="path1389"
             style="fill:#fbb429;fill-opacity:1" />
        </g>
        <path
           style="fill:#d1e3ee;stroke-width:1.33333325"
           inkscape:connector-curvature="0"
           d="m -238.0745,-189.0595 -16.08855,-16.08333 -69.50519,69.48437 c -35.35937,-26.46354 -85.47395,-19.25 -111.93228,16.10937 -26.46355,35.354168 -19.25,85.468739 16.10937,111.9322832 35.35937,26.4583308 85.47395,19.2447848 111.93228,-16.1093712 21.25521,-28.406251 21.25521,-67.41666 0,-95.822912 z m -133.19791,174.005201 c -31.42186,0 -56.89062,-25.473958 -56.89062,-56.890621 0,-31.41667 25.46876,-56.89062 56.89062,-56.89062 31.41666,0 56.88542,25.47395 56.88542,56.89062 -0.0365,31.40625 -25.48438,56.854154 -56.88542,56.890621 z m 0,0"
           id="path1393" />
        <path
           style="fill:#5dc1d8;fill-opacity:1;stroke-width:1.33333325"
           inkscape:connector-curvature="0"
           d="m -359.89741,269.38838 h -45.51041 l -68.26562,68.26562 125.15624,125.15623 91.02082,-91.02082 z m -53.55208,82.97915 45.51041,-45.51041 16.08855,16.08855 -45.51562,45.51041 z m 50.21875,50.22396 -16.08854,-16.08855 45.51041,-45.51041 16.08855,16.08333 z m 0,0"
           id="path1395" />
        <path
           inkscape:connector-curvature="0"
           d="m -126.65264,-94.70013 c -9.42187,0 -17.0677,7.640625 -17.0677,17.067706 0,9.42709 7.64583,17.067703 17.0677,17.067703 9.42708,0 17.06771,-7.640613 17.06771,-17.067703 0,-9.427081 -7.64063,-17.067706 -17.06771,-17.067706 z m 0,0"
           id="path1397"
           style="fill:#ffffff;stroke-width:1.33333325" />
        <path
           inkscape:connector-curvature="0"
           d="m -78.782853,-205.14283 c -4.442707,-4.4427 -11.645826,-4.4427 -16.088545,0 l -91.026032,91.02083 c -2.1302,2.13541 -3.33333,5.02604 -3.33333,8.04166 v 79.645828 c 0,6.286453 5.09376,11.380213 11.38021,11.380213 h 79.645819 c 3.015626,0 5.911466,-1.203134 8.041666,-3.333333 L 0.8577654,-109.41367 c 4.4427062,-4.44271 4.4427062,-11.64583 0,-16.08854 z m -24.135407,167.33332 h -63.55729 v -63.55729 l 79.645818,-79.64582 63.557286,63.55728 z m 0,0"
           id="path1399"
           style="fill:#2e4c89;fill-opacity:1;stroke-width:1.33333325" />
        <path
           inkscape:connector-curvature="0"
           d="m -667.09529,178.36755 h 34.1302 v 1.45313 c 0.0469,20.47395 14.1875,38.21874 34.13542,42.82812 V 326.279 c 0,6.28645 5.09375,11.3802 11.37499,11.3802 h 68.27083 c 6.28125,0 11.375,-5.09896 11.375,-11.3802 v -45.51042 h 11.46875 c 18.78125,-0.0521 33.99479,-15.26041 34.04166,-34.04167 V 222.6488 c 14.53125,-3.40626 26.34374,-13.94792 31.38021,-28 l 191.55727,85.14062 c 5.74479,2.55208 12.46353,-0.0365 15.01563,-5.78125 0.64582,-1.45312 0.98437,-3.02604 0.98437,-4.61979 V -3.6793005 c 0,-6.2812527 -5.09376,-11.3749985 -11.38021,-11.3749985 -1.58855,0 -3.16145,0.333333 -4.61979,0.97916 l -191.55727,85.140618 c -6.21875,-17.484372 -22.7448,-29.177077 -41.30208,-29.234371 H -588.9078 c -24.32291,0.02604 -44.03125,19.739585 -44.05729,44.057289 v 1.458333 h -34.1302 c -6.28646,0 -11.38021,5.093747 -11.38021,11.374999 v 68.265621 c 0,6.28645 5.09375,11.3802 11.38021,11.3802 z m 375.4635,-144.317694 45.51562,-20.218745 V 251.87795 l -45.51562,-20.21874 z m -136.53124,60.6927 113.77604,-50.578115 V 221.60192 l -113.77604,-50.6302 z M -530.56406,269.38838 v 45.51041 h -45.51041 v -91.02083 h 45.51041 z m 45.51042,-22.66147 c -0.005,6.22918 -5.05209,11.28126 -11.28646,11.28647 h -11.46875 v -34.13542 h 22.75521 z M -610.20988,166.98735 V 85.888397 c 0.0156,-11.760425 9.54166,-21.286464 21.30208,-21.302091 h 116.68749 c 11.76041,0.0156 21.28645,9.541666 21.30208,21.302091 v 93.937483 c -0.0156,11.75521 -9.54167,21.28647 -21.30208,21.29688 H -588.9078 c -11.76042,-0.0107 -21.28646,-9.54167 -21.30208,-21.29688 z m -45.51041,-56.88542 h 22.7552 v 45.51042 h -22.7552 z m 0,0"
           id="path1401"
           style="fill:#2e4c89;fill-opacity:1;stroke-width:1.33333325" />
        <path
           inkscape:connector-curvature="0"
           d="m -111.76722,238.91962 c -4.44271,-4.4427 -11.64584,-4.4427 -16.08855,0 l -80.46352,80.46354 c -4.44271,4.44271 -4.44271,11.64584 0,16.08855 l 112.640612,112.64061 c 4.442706,4.44271 11.640612,4.44271 16.083331,0 L 0.8577654,367.6592 c 4.4427062,-4.44271 4.4427062,-11.64583 0,-16.08854 z m 74.796869,106.95312 -64.208329,-4.92707 -4.9375,-64.20833 z m -50.666661,78.07292 -96.552088,-96.53125 54.92188,-54.91666 6.15625,79.91666 c 0.42187,5.59375 4.86979,10.04687 10.46353,10.47916 l 79.932289,6.14063 z m 0,0"
           id="path1403"
           style="fill:#2e4c89;fill-opacity:1;stroke-width:1.33333325" />
        <path
           inkscape:connector-curvature="0"
           d="m -371.27241,7.7008984 c 43.89583,0.098933 79.5625,-35.4062494 79.66666,-79.3020724 0.0365,-17.291665 -5.56249,-34.124996 -15.95312,-47.947916 l 69.50521,-69.51041 -16.10939,-16.08333 -69.50519,69.48437 c -35.19271,-26.39583 -85.11458,-19.26041 -111.5052,15.92708 -26.39063,35.1875 -19.26042,85.109363 15.93229,111.4999866 13.83333,10.3802123 30.67187,15.9687584 47.96874,15.9322918 z m 0,-136.5364384 c 31.41666,0 56.88542,25.47395 56.88542,56.89062 0,31.416663 -25.46876,56.890621 -56.88542,56.890621 -31.42186,0 -56.89061,-25.473958 -56.89061,-56.890621 0.0364,-31.40104 25.48437,-56.84896 56.89061,-56.89062 z m 0,0"
           id="path1405"
           style="fill:#2e4c89;fill-opacity:1;stroke-width:1.33333325" />
        <path
           inkscape:connector-curvature="0"
           d="m -189.23076,189.74776 h 56.89062 v 11.375 c 0,6.28645 5.09376,11.3802 11.375,11.3802 h 91.026028 c 6.281253,0 11.374999,-5.09895 11.374999,-11.3802 V 144.45088 C -18.621446,125.12797 -30.840151,107.93526 -49.06931,101.52381 -28.584938,86.95089 -23.798485,58.534227 -38.371391,38.055069 -52.939109,17.575897 -81.355773,12.784231 -101.83493,27.35715 c -20.48437,14.572918 -25.27084,42.984369 -10.69792,63.46874 2.94271,4.135413 6.55729,7.749999 10.69792,10.69792 -7.36459,2.625 -13.93229,7.09896 -19.07292,12.98958 -3.96353,-4.5677 -8.80208,-8.30209 -14.23437,-10.97917 15.29688,-11.020823 18.76041,-32.354155 7.73958,-47.64582 -11.02603,-15.296878 -32.35937,-18.755211 -47.65103,-7.734372 -15.29167,11.020825 -18.75521,32.354156 -7.73437,47.645822 2.14582,2.979173 4.76041,5.58855 7.73437,7.73437 -15.58855,7.57813 -25.5,23.3698 -25.55209,40.69792 v 34.13541 c 0,6.28125 5.09376,11.38021 11.375,11.38021 z M -75.44952,41.831108 c 12.567705,0 22.755211,10.192706 22.755211,22.755211 0,12.567706 -10.187506,22.760411 -22.755211,22.760411 -12.567706,0 -22.755211,-10.192705 -22.755211,-22.760411 0,-12.562505 10.187505,-22.755211 22.755211,-22.755211 z m -34.13541,136.536442 v -33.91667 c 0.0208,-12.68229 10.291665,-22.95311 22.973957,-22.97395 h 22.322918 c 12.677079,0.0208 22.953118,10.29166 22.968745,22.97395 v 45.29167 h -68.26562 z M -155.09534,64.586319 c 6.28124,0 11.375,5.098947 11.375,11.380199 0,6.286466 -5.09376,11.380212 -11.375,11.380212 -6.28647,0 -11.38021,-5.098959 -11.38021,-11.380212 0,-6.281252 5.09374,-11.380199 11.38021,-11.380199 z m -22.75521,79.645821 c 0,-12.56771 10.18749,-22.75521 22.75521,-22.75521 12.56771,0 22.7552,10.1875 22.7552,22.75521 v 22.75521 h -45.51041 z m 0,0"
           id="path1407"
           style="fill:#2e4c89;fill-opacity:1;stroke-width:1.33333325" />
        <path
           inkscape:connector-curvature="0"
           d="m -359.89741,258.01338 h -45.51041 c -3.01563,0 -5.91145,1.19791 -8.04167,3.33333 l -68.27082,68.26562 c -4.4375,4.44271 -4.4375,11.64583 0,16.08853 l 125.15623,125.15625 c 4.44271,4.4427 11.64584,4.4427 16.08855,0 l 91.02603,-91.02082 c 4.4375,-4.44272 4.4375,-11.64584 0,-16.08855 L -351.85053,261.34671 c -2.13542,-2.13541 -5.03126,-3.33333 -8.04688,-3.33333 z m 11.38021,188.70831 -109.0677,-109.06249 56.88541,-56.89062 h 36.09375 l 91.02083,91.02083 z m 0,0"
           id="path1409"
           style="fill:#2e4c89;fill-opacity:1;stroke-width:1.33333325" />
        <path
           inkscape:connector-curvature="0"
           d="m -413.44949,352.36753 45.51041,-45.51562 16.08855,16.09376 -45.51041,45.51041 z m 0,0"
           id="path1411"
           style="fill:#ffffff;stroke-width:1.33333325" />
        <path
           inkscape:connector-curvature="0"
           d="m -379.32449,386.49774 45.51562,-45.51041 16.08855,16.08853 -45.51042,45.51563 z m 0,0"
           id="path1413"
           style="fill:#ffffff;stroke-width:1.33333325" />
      </g>
    </g>
  </g>
</svg>
