<svg id="happy-feedback" enable-background="new 0 0 300 300" height="512" viewBox="0 0 300 300" width="512" xmlns="http://www.w3.org/2000/svg"><path d="m229.999 118c-2.117 0-4.156-.836-5.656-2.344l-16-16c-3.125-3.125-3.125-8.188 0-11.312s8.188-3.125 11.312 0l9.805 9.805 34.391-41.273c2.828-3.391 7.859-3.852 11.273-1.023 3.391 2.828 3.852 7.875 1.023 11.273l-40 48c-1.445 1.727-3.539 2.766-5.789 2.867-.117.007-.242.007-.359.007z" fill="#d8b400"/><circle cx="77.999" cy="190" r="8"/><path d="m110.334 198.708c4.414.193 8.149-3.228 8.342-7.642s-3.228-8.15-7.642-8.344-8.149 3.229-8.342 7.643 3.228 8.15 7.642 8.343z"/><path d="m165.999 94c0-39.703-32.297-72-72-72s-72 32.297-72 72c0 22.613 10.498 42.799 26.854 56.008-16.009 12.885-25.872 31.933-26.783 52.836-1.734 39.664 29.117 73.352 68.773 75.086 1.078.047 2.156.07 3.227.07 18.039 0 35.18-6.648 48.562-18.906 14.18-12.992 22.453-30.727 23.297-49.938 1.012-23.128-9.074-44.924-26.756-59.168 16.341-13.21 26.826-33.386 26.826-55.988zm-128 0c0-30.875 25.125-56 56-56s56 25.125 56 56-25.125 56-56 56-56-25.125-56-56zm111.945 114.453c-1.344 30.852-27.422 54.914-58.398 53.492-30.844-1.352-54.844-27.547-53.492-58.398.795-18.177 10.299-34.526 25.469-44.408 9.27 4.355 19.574 6.861 30.476 6.861 10.897 0 21.197-2.504 30.464-6.855 16.599 10.806 26.355 29.401 25.481 49.308z"/><circle cx="77.999" cy="78" r="8"/><circle cx="109.999" cy="78" r="8"/><path d="m93.999 134c17.648 0 32-14.352 32-32 0-4.422-3.578-8-8-8s-8 3.578-8 8c0 8.82-7.18 16-16 16s-16-7.18-16-16c0-4.422-3.578-8-8-8s-8 3.578-8 8c0 17.648 14.352 32 32 32z"/><path d="m261.999 102c-4.422 0-8 3.578-8 8v16h-64v-64h52c4.422 0 8-3.578 8-8s-3.578-8-8-8h-60c-4.422 0-8 3.578-8 8v80c0 4.422 3.578 8 8 8h80c4.422 0 8-3.578 8-8v-24c0-4.422-3.578-8-8-8z"/><path d="m261.999 158h-80c-4.422 0-8 3.578-8 8v80c0 4.422 3.578 8 8 8h80c4.422 0 8-3.578 8-8v-80c0-4.422-3.578-8-8-8zm-8 80h-64v-64h64z"/><path d="m93.999 214c-8.969 0-17.609 3.875-23.711 10.641-2.117 2.344-2.656 5.719-1.375 8.609 1.289 2.891 4.148 4.75 7.312 4.75h35.547c3.164 0 6.023-1.859 7.312-4.75 1.281-2.891.742-6.266-1.375-8.609-6.101-6.766-14.741-10.641-23.71-10.641z"/></svg>