<?xml version="1.0" encoding="UTF-8" standalone="no"?>
<!-- Created with Inkscape (http://www.inkscape.org/) -->

<svg
   xmlns:dc="http://purl.org/dc/elements/1.1/"
   xmlns:cc="http://creativecommons.org/ns#"
   xmlns:rdf="http://www.w3.org/1999/02/22-rdf-syntax-ns#"
   xmlns:svg="http://www.w3.org/2000/svg"
   xmlns="http://www.w3.org/2000/svg"
   xmlns:xlink="http://www.w3.org/1999/xlink"
   xmlns:sodipodi="http://sodipodi.sourceforge.net/DTD/sodipodi-0.dtd"
   xmlns:inkscape="http://www.inkscape.org/namespaces/inkscape"
   width="600px"
   height="300px"
   viewBox="0 0 600 300"
   version="1.1"
   id="SVGRoot"
   inkscape:version="0.92.4 (f8dce91, 2019-08-02)"
   sodipodi:docname="hostingm.svg">
  <defs
     id="defs332">
    <linearGradient
       inkscape:collect="always"
       xlink:href="#linearGradient83516"
       id="linearGradient83518"
       x1="-203.93333"
       y1="-44.781616"
       x2="-71.377075"
       y2="47.035416"
       gradientUnits="userSpaceOnUse"
       gradientTransform="matrix(4.3840582,0,0,3.7534031,936.41247,167.08456)" />
    <linearGradient
       inkscape:collect="always"
       id="linearGradient83516">
      <stop
         style="stop-color:#ffaaaa;stop-opacity:1;"
         offset="0"
         id="stop83512" />
      <stop
         style="stop-color:#ffaaaa;stop-opacity:0;"
         offset="1"
         id="stop83514" />
    </linearGradient>
  </defs>
  <sodipodi:namedview
     id="base"
     pagecolor="#ffffff"
     bordercolor="#666666"
     borderopacity="1.0"
     inkscape:pageopacity="0.0"
     inkscape:pageshadow="2"
     inkscape:zoom="0.7"
     inkscape:cx="106.56039"
     inkscape:cy="104.14924"
     inkscape:document-units="px"
     inkscape:current-layer="layer1"
     showgrid="false"
     inkscape:window-width="1280"
     inkscape:window-height="751"
     inkscape:window-x="0"
     inkscape:window-y="25"
     inkscape:window-maximized="1"
     inkscape:snap-global="false" />
  <metadata
     id="metadata335">
    <rdf:RDF>
      <cc:Work
         rdf:about="">
        <dc:format>image/svg+xml</dc:format>
        <dc:type
           rdf:resource="http://purl.org/dc/dcmitype/StillImage" />
        <dc:title></dc:title>
      </cc:Work>
    </rdf:RDF>
  </metadata>
  <g
     inkscape:label="Layer 1"
     inkscape:groupmode="layer"
     id="layer1">
    <rect
       style="fill:url(#linearGradient83518);fill-opacity:1;stroke:#000000;stroke-width:0.05366404"
       id="rect83510"
       width="600.85345"
       height="299.91254"
       x="0.59873492"
       y="-0.97407913" />
    <text
       id="text455"
       y="206.7108"
       x="202.99863"
       style="font-style:normal;font-weight:normal;font-size:40px;line-height:1.25;font-family:sans-serif;letter-spacing:0px;word-spacing:0px;fill:#000000;fill-opacity:1;stroke:none"
       xml:space="preserve"><tspan
         style="font-style:normal;font-variant:normal;font-weight:normal;font-stretch:normal;font-family:Dyuthi;-inkscape-font-specification:Dyuthi;fill:#000000"
         y="206.7108"
         x="202.99863"
         id="tspan453"
         sodipodi:role="line">Hosting &amp; Maintenance</tspan></text>
    <text
       id="text459"
       y="202.36563"
       x="204.0291"
       style="font-style:normal;font-weight:normal;font-size:40px;line-height:1.25;font-family:sans-serif;letter-spacing:0px;word-spacing:0px;fill:#ffffff;fill-opacity:1;stroke:none"
       xml:space="preserve"><tspan
         style="font-style:normal;font-variant:normal;font-weight:normal;font-stretch:normal;font-family:Dyuthi;-inkscape-font-specification:Dyuthi;fill:#ffffff"
         y="202.36563"
         x="204.0291"
         id="tspan457"
         sodipodi:role="line">Hosting &amp; Maintenance</tspan></text>
    <text
       xml:space="preserve"
       style="font-style:normal;font-weight:normal;font-size:40px;line-height:1.25;font-family:sans-serif;letter-spacing:0px;word-spacing:0px;fill:#ff0000;fill-opacity:1;stroke:none"
       x="202.99864"
       y="204.7108"
       id="text67"><tspan
         sodipodi:role="line"
         id="tspan65"
         x="202.99864"
         y="204.7108"
         style="font-style:normal;font-variant:normal;font-weight:normal;font-stretch:normal;font-family:Dyuthi;-inkscape-font-specification:Dyuthi;fill:#ff0000">Hosting &amp; Maintenance</tspan></text>
    <g
       id="g765"
       transform="matrix(0.505223,0,0,0.505223,106.21971,96.287472)">
      <path
         id="path559"
         d="M -114.22905,-37.486034 H 156.86076 V 220.0493 h -271.08981 z"
         inkscape:connector-curvature="0"
         style="fill:#5dc1d8;fill-opacity:1;stroke:#000000;stroke-width:1.92110896;stroke-miterlimit:4;stroke-dasharray:none" />
      <rect
         id="rect561"
         y="3.177438"
         x="-127.78345"
         width="298.19879"
         rx="13.554491"
         height="81.326942"
         style="fill:#fe3745;fill-opacity:1;stroke:#000000;stroke-width:1.92110896;stroke-miterlimit:4;stroke-dasharray:none" />
      <circle
         id="circle563"
         r="13.554491"
         cy="43.8409"
         cx="129.75192"
         style="fill:#ffffff;fill-opacity:1;stroke:#000000;stroke-width:1.92110896;stroke-miterlimit:4;stroke-dasharray:none" />
      <g
         transform="matrix(6.7772453,0,0,6.7772453,-195.556,-118.81298)"
         id="g579"
         style="fill:#ffffff;stroke:#000000;stroke-width:0.28346455;stroke-miterlimit:4;stroke-dasharray:none">
        <path
           style="fill:#ffffff;stroke:#000000;stroke-width:0.28346455;stroke-miterlimit:4;stroke-dasharray:none"
           id="path565"
           d="m 13,21 h 2 v 6 h -2 z"
           inkscape:connector-curvature="0" />
        <path
           style="fill:#ffffff;stroke:#000000;stroke-width:0.28346455;stroke-miterlimit:4;stroke-dasharray:none"
           id="path567"
           d="m 17,21 h 2 v 6 h -2 z"
           inkscape:connector-curvature="0" />
        <path
           style="fill:#ffffff;stroke:#000000;stroke-width:0.28346455;stroke-miterlimit:4;stroke-dasharray:none"
           id="path569"
           d="m 21,21 h 2 v 6 h -2 z"
           inkscape:connector-curvature="0" />
        <path
           style="fill:#ffffff;stroke:#000000;stroke-width:0.28346455;stroke-miterlimit:4;stroke-dasharray:none"
           id="path571"
           d="m 25,21 h 2 v 6 h -2 z"
           inkscape:connector-curvature="0" />
        <path
           style="fill:#ffffff;stroke:#000000;stroke-width:0.28346455;stroke-miterlimit:4;stroke-dasharray:none"
           id="path573"
           d="m 41,23 h 2 v 2 h -2 z"
           inkscape:connector-curvature="0" />
        <path
           style="fill:#ffffff;stroke:#000000;stroke-width:0.28346455;stroke-miterlimit:4;stroke-dasharray:none"
           id="path575"
           d="m 37,23 h 2 v 2 h -2 z"
           inkscape:connector-curvature="0" />
        <path
           style="fill:#ffffff;stroke:#000000;stroke-width:0.28346455;stroke-miterlimit:4;stroke-dasharray:none"
           id="path577"
           d="m 33,23 h 2 v 2 h -2 z"
           inkscape:connector-curvature="0" />
      </g>
      <rect
         id="rect581"
         y="111.61337"
         x="-127.78345"
         width="298.19879"
         rx="13.554491"
         height="67.772453"
         style="fill:#fe3745;fill-opacity:1;stroke:#000000;stroke-width:1.92110896;stroke-miterlimit:4;stroke-dasharray:none" />
      <path
         id="path583"
         d="m -107.4518,131.9451 h 13.554481 v 27.109 H -107.4518 Z"
         inkscape:connector-curvature="0"
         style="fill:#ffffff;stroke:#000000;stroke-width:1.92110896;stroke-miterlimit:4;stroke-dasharray:none" />
      <path
         id="path585"
         d="m -80.342807,131.9451 h 13.554479 v 27.109 h -13.554479 z"
         inkscape:connector-curvature="0"
         style="fill:#ffffff;stroke:#000000;stroke-width:1.92110896;stroke-miterlimit:4;stroke-dasharray:none" />
      <path
         id="path587"
         d="m -53.233816,131.9451 h 13.554447 v 27.109 h -13.554447 z"
         inkscape:connector-curvature="0"
         style="fill:#ffffff;stroke:#000000;stroke-width:1.92110896;stroke-miterlimit:4;stroke-dasharray:none" />
      <path
         id="path589"
         d="m -26.124889,131.9451 h 13.554512 v 27.109 h -13.554512 z"
         inkscape:connector-curvature="0"
         style="fill:#ffffff;stroke:#000000;stroke-width:1.92110896;stroke-miterlimit:4;stroke-dasharray:none" />
      <path
         id="path591"
         d="m 82.311044,138.72236 h 13.55448 v 13.55448 h -13.55448 z"
         inkscape:connector-curvature="0"
         style="fill:#ffffff;stroke:#000000;stroke-width:1.92110896;stroke-miterlimit:4;stroke-dasharray:none" />
      <path
         id="path593"
         d="m 55.202085,138.72236 h 13.554479 v 13.55448 H 55.202085 Z"
         inkscape:connector-curvature="0"
         style="fill:#ffffff;stroke:#000000;stroke-width:1.92110896;stroke-miterlimit:4;stroke-dasharray:none" />
      <path
         id="path595"
         d="m 28.093093,138.72236 h 13.55448 v 13.55448 h -13.55448 z"
         inkscape:connector-curvature="0"
         style="fill:#ffffff;stroke:#000000;stroke-width:1.92110896;stroke-miterlimit:4;stroke-dasharray:none" />
      <circle
         id="circle597"
         r="6.7772455"
         cy="145.49957"
         cx="129.75192"
         style="fill:#ffaf10;fill-opacity:1;stroke:#000000;stroke-width:1.92110896;stroke-miterlimit:4;stroke-dasharray:none" />
      <rect
         id="rect599"
         y="-98.481255"
         x="-127.78345"
         width="298.19879"
         rx="13.554491"
         height="67.772453"
         style="fill:#fe3745;fill-opacity:1;stroke:#000000;stroke-width:1.92110896;stroke-miterlimit:4;stroke-dasharray:none" />
      <path
         id="path601"
         d="m -107.4518,-78.149505 h 13.554481 v 27.108959 H -107.4518 Z"
         inkscape:connector-curvature="0"
         style="fill:#ffffff;stroke:#000000;stroke-width:1.92110896;stroke-miterlimit:4;stroke-dasharray:none" />
      <path
         id="path603"
         d="m -80.342807,-78.149505 h 13.554479 v 27.108959 h -13.554479 z"
         inkscape:connector-curvature="0"
         style="fill:#ffffff;stroke:#000000;stroke-width:1.92110896;stroke-miterlimit:4;stroke-dasharray:none" />
      <path
         id="path605"
         d="m -53.233816,-78.149505 h 13.554447 v 27.108959 h -13.554447 z"
         inkscape:connector-curvature="0"
         style="fill:#ffffff;stroke:#000000;stroke-width:1.92110896;stroke-miterlimit:4;stroke-dasharray:none" />
      <path
         id="path607"
         d="m -26.124889,-78.149505 h 13.554512 v 27.108959 h -13.554512 z"
         inkscape:connector-curvature="0"
         style="fill:#ffffff;stroke:#000000;stroke-width:1.92110896;stroke-miterlimit:4;stroke-dasharray:none" />
      <path
         id="path609"
         d="M 55.202085,-71.372282 H 68.756564 V -57.81777 H 55.202085 Z"
         inkscape:connector-curvature="0"
         style="fill:#ffffff;stroke:#000000;stroke-width:1.92110896;stroke-miterlimit:4;stroke-dasharray:none" />
      <path
         id="path611"
         d="m 82.311044,-71.372282 h 13.55448 v 13.554512 h -13.55448 z"
         inkscape:connector-curvature="0"
         style="fill:#ffffff;stroke:#000000;stroke-width:1.92110896;stroke-miterlimit:4;stroke-dasharray:none" />
      <path
         id="path613"
         d="m 28.093093,-71.372282 h 13.55448 v 13.554512 h -13.55448 z"
         inkscape:connector-curvature="0"
         style="fill:#ffffff;stroke:#000000;stroke-width:1.92110896;stroke-miterlimit:4;stroke-dasharray:none" />
      <circle
         id="circle615"
         r="6.7772455"
         cy="-64.595032"
         cx="129.75192"
         style="fill:#fcf05a;stroke:#000000;stroke-width:1.92110896;stroke-miterlimit:4;stroke-dasharray:none" />
      <rect
         id="rect617"
         y="213.27205"
         x="-127.78345"
         width="298.19879"
         rx="13.554491"
         height="81.326942"
         style="fill:#fe3745;fill-opacity:1;stroke:#000000;stroke-width:1.92110896;stroke-miterlimit:4;stroke-dasharray:none" />
      <circle
         id="circle619"
         r="13.554491"
         cy="253.9355"
         cx="129.75192"
         style="fill:#5dc1d8;fill-opacity:1;stroke:#000000;stroke-width:1.92110896;stroke-miterlimit:4;stroke-dasharray:none" />
      <path
         id="path621"
         d="m -107.4518,233.60378 h 13.554481 v 40.66347 H -107.4518 Z"
         inkscape:connector-curvature="0"
         style="fill:#ffffff;stroke:#000000;stroke-width:1.92110896;stroke-miterlimit:4;stroke-dasharray:none" />
      <path
         id="path623"
         d="m -80.342807,233.60378 h 13.554479 v 40.66347 h -13.554479 z"
         inkscape:connector-curvature="0"
         style="fill:#ffffff;stroke:#000000;stroke-width:1.92110896;stroke-miterlimit:4;stroke-dasharray:none" />
      <path
         id="path625"
         d="m -53.233816,233.60378 h 13.554447 v 40.66347 h -13.554447 z"
         inkscape:connector-curvature="0"
         style="fill:#ffffff;stroke:#000000;stroke-width:1.92110896;stroke-miterlimit:4;stroke-dasharray:none" />
      <path
         id="path627"
         d="m -26.124889,233.60378 h 13.554512 v 40.66347 h -13.554512 z"
         inkscape:connector-curvature="0"
         style="fill:#ffffff;stroke:#000000;stroke-width:1.92110896;stroke-miterlimit:4;stroke-dasharray:none" />
      <path
         id="path629"
         d="m 82.311044,247.15826 h 13.55448 v 13.55451 h -13.55448 z"
         inkscape:connector-curvature="0"
         style="fill:#ffffff;stroke:#000000;stroke-width:1.92110896;stroke-miterlimit:4;stroke-dasharray:none" />
      <path
         id="path631"
         d="m 55.202085,247.15826 h 13.554479 v 13.55451 H 55.202085 Z"
         inkscape:connector-curvature="0"
         style="fill:#ffffff;stroke:#000000;stroke-width:1.92110896;stroke-miterlimit:4;stroke-dasharray:none" />
      <path
         id="path633"
         d="m 28.093093,247.15826 h 13.55448 v 13.55451 h -13.55448 z"
         inkscape:connector-curvature="0"
         style="fill:#ffffff;stroke:#000000;stroke-width:1.92110896;stroke-miterlimit:4;stroke-dasharray:none" />
    </g>
    <g
       id="g984"
       transform="matrix(0.25892857,0,0,0.25892857,157.32944,78.01896)">
      <path
         id="path767"
         d="m 610.98821,7.02592 h -1.352 c 0,-40 -6.648,-128 -78.648,-128 v -8 h -48 v 8 c -72,0 -78.648,88 -78.648,128 h -33.352 v 32 h 272 v -32 z"
         style="fill:#ffaf10;fill-opacity:1"
         inkscape:connector-curvature="0" />
      <path
         id="path769"
         d="m 546.98821,223.02592 v -48 h -43.144 c -2.232,-8.669 -5.674,-16.979 -10.224,-24.688 l 30.504,-30.512 -33.936,-33.936 -30.504,30.504 c -7.711,-4.551 -16.025,-7.993 -24.696,-10.224 v -43.144 h -48 v 43.144 c -8.669,2.232 -16.98,5.674 -24.688,10.224 l -30.512,-30.504 -33.936,33.936 30.504,30.512 c -4.55,7.708 -7.992,16.019 -10.224,24.688 h -43.144 v 48 h 43.144 c 2.232,8.669 5.674,16.979 10.224,24.688 l -30.504,30.512 33.936,33.936 30.504,-30.504 c 7.711,4.551 16.025,7.993 24.696,10.224 v 43.144 h 48 v -43.144 c 8.669,-2.232 16.98,-5.674 24.688,-10.224 l 30.512,30.504 33.936,-33.936 -30.504,-30.504 c 4.551,-7.711 7.993,-16.025 10.224,-24.696 z m -136,32 c -30.928,0 -56,-25.072 -56,-56 0,-30.928 25.072,-56 56,-56 30.928,0 56,25.072 56,56 0,30.928 -25.072,56 -56,56 z"
         style="fill:#5dc1d8;fill-opacity:1"
         inkscape:connector-curvature="0" />
      <path
         id="path771"
         d="m 706.98821,151.02592 v -32 h -26.792 c -0.563,-1.584 -1.207,-3.138 -1.928,-4.656 l 18.944,-18.944 -22.624,-22.624 -18.952,18.944 c -1.513,-0.726 -3.065,-1.37 -4.648,-1.928 v -26.792 h -32 v 26.792 c -1.583,0.558 -3.135,1.202 -4.648,1.928 l -18.952,-18.944 -22.624,22.624 18.944,18.944 c -0.721,1.518 -1.365,3.072 -1.928,4.656 h -26.792 v 32 h 26.792 c 0.562,1.582 1.205,3.133 1.928,4.648 l -18.944,18.952 22.624,22.624 18.944,-18.944 c 1.517,0.725 3.071,1.368 4.656,1.928 v 26.792 h 32 v -26.792 c 1.585,-0.56 3.139,-1.203 4.656,-1.928 l 18.944,18.944 22.624,-22.624 -18.944,-18.952 c 0.723,-1.515 1.366,-3.066 1.928,-4.648 z m -72,8 c -13.255,0 -24,-10.745 -24,-24 0,-13.255 10.745,-24 24,-24 13.255,0 24,10.745 24,24 0,13.255 -10.745,24 -24,24 z"
         style="fill:#5dc1d8;fill-opacity:1"
         inkscape:connector-curvature="0" />
      <path
         style="fill:#fe3745;fill-opacity:1"
         id="path773"
         d="m 410.98821,135.02592 c -35.346,0 -64,28.654 -64,64 0,35.346 28.654,64 64,64 35.346,0 64,-28.654 64,-64 -0.04,-35.33 -28.67,-63.96 -64,-64 z m 0,112 c -26.51,0 -48,-21.49 -48,-48 0,-26.51 21.49,-48 48,-48 26.51,0 48,21.49 48,48 -0.026,26.499 -21.501,47.974 -48,48 z"
         inkscape:connector-curvature="0" />
      <path
         style="fill:#2e4c89;fill-opacity:1"
         id="path775"
         d="m 546.98821,231.02592 c 4.418,0 8,-3.582 8,-8 v -48 c 0,-4.418 -3.582,-8 -8,-8 h -37.144 c -1.693,-5.255 -3.806,-10.365 -6.32,-15.28 l 26.264,-26.256 c 3.123,-3.124 3.123,-8.188 0,-11.312 l -33.952,-33.944 c -3.124,-3.123 -8.188,-3.123 -11.312,0 l -26.256,26.256 c -4.916,-2.512 -10.026,-4.625 -15.28,-6.32 v -37.144 c 0,-4.418 -3.582,-8 -8,-8 h -48 c -4.418,0 -8,3.582 -8,8 v 37.144 c -5.254,1.695 -10.364,3.808 -15.28,6.32 l -26.256,-26.256 c -3.124,-3.123 -8.188,-3.123 -11.312,0 l -33.952,33.944 c -3.123,3.124 -3.123,8.188 0,11.312 l 26.264,26.256 c -2.514,4.915 -4.627,10.025 -6.32,15.28 h -37.144 c -4.418,0 -8,3.582 -8,8 v 48 c 0,4.418 3.582,8 8,8 h 37.144 c 1.693,5.255 3.806,10.365 6.32,15.28 l -26.264,26.256 c -3.123,3.124 -3.123,8.188 0,11.312 l 33.952,33.944 c 3.124,3.123 8.188,3.123 11.312,0 l 26.256,-26.256 c 4.916,2.512 10.026,4.625 15.28,6.32 v 37.144 c 0,4.418 3.582,8 8,8 h 48 c 4.418,0 8,-3.582 8,-8 v -37.144 c 5.254,-1.695 10.364,-3.808 15.28,-6.32 l 26.256,26.256 c 3.124,3.123 8.188,3.123 11.312,0 l 33.952,-33.944 c 3.123,-3.124 3.123,-8.188 0,-11.312 l -26.264,-26.256 c 2.514,-4.915 4.627,-10.025 6.32,-15.28 z m -50.896,-10 c -2.044,7.943 -5.195,15.559 -9.36,22.624 -1.853,3.142 -1.347,7.14 1.232,9.72 l 24.856,24.856 -22.632,22.624 -24.848,-24.848 c -2.581,-2.583 -6.584,-3.09 -9.728,-1.232 -7.062,4.166 -14.675,7.317 -22.616,9.36 -3.531,0.912 -5.999,4.097 -6,7.744 v 35.152 h -32.008 v -35.152 c -10e-4,-3.647 -2.469,-6.832 -6,-7.744 -7.941,-2.043 -15.554,-5.194 -22.616,-9.36 -3.144,-1.858 -7.147,-1.351 -9.728,1.232 l -24.856,24.848 -22.632,-22.624 24.856,-24.848 c 2.579,-2.58 3.085,-6.578 1.232,-9.72 -4.165,-7.065 -7.316,-14.681 -9.36,-22.624 -0.912,-3.531 -4.097,-5.999 -7.744,-6 h -35.152 v -32.008 h 35.152 c 3.647,-0.001 6.832,-2.469 7.744,-6 2.044,-7.943 5.195,-15.559 9.36,-22.624 1.853,-3.142 1.347,-7.14 -1.232,-9.72 l -24.856,-24.856 22.64,-22.632 24.848,24.848 c 2.581,2.583 6.584,3.09 9.728,1.232 7.062,-4.166 14.675,-7.317 22.616,-9.36 3.531,-0.912 5.999,-4.097 6,-7.744 v -35.144 h 32 v 35.152 c 0.001,3.647 2.469,6.832 6,7.744 7.941,2.043 15.554,5.194 22.616,9.36 3.144,1.858 7.147,1.351 9.728,-1.232 l 24.856,-24.848 22.64,22.632 -24.856,24.848 c -2.579,2.58 -3.085,6.578 -1.232,9.72 4.165,7.065 7.316,14.681 9.36,22.624 0.912,3.531 4.097,5.999 7.744,6 h 35.144 v 32 h -35.152 c -3.647,10e-4 -6.832,2.469 -7.744,6 z"
         inkscape:connector-curvature="0" />
      <path
         style="fill:#2e4c89;fill-opacity:1"
         id="path777"
         d="m 650.98821,39.02592 v -32 c 0,-4.418 -3.582,-8 -8,-8 h -25.52 c -1.864,-46.4 -20.08,-121.232 -78.48,-127.528 v -0.472 c 0,-4.418 -3.582,-8 -8,-8 h -48 c -4.418,0 -8,3.582 -8,8 v 0.472 c -58.4,6.296 -76.616,81.128 -78.48,127.528 h -25.52 c -4.418,0 -8,3.582 -8,8 v 32 c 0,4.418 3.582,8 8,8 h 272 c 4.418,0 8,-3.582 8,-8 z m -16,-8 h -256 v -16 h 64 v -16 h -30.464 c 1.664,-40.544 16.352,-104.696 62.464,-111.384 v 71.384 h 16 v -80 h 32 v 80 h 16 v -71.384 c 46.112,6.688 60.8,70.84 62.464,111.384 h -142.464 v 16 h 176 z"
         inkscape:connector-curvature="0" />
      <path
         style="fill:#2e4c89;fill-opacity:1"
         id="path779"
         d="m 714.98821,151.02592 v -32 c 0,-4.418 -3.582,-8 -8,-8 h -14.056 l 9.936,-9.944 c 3.123,-3.124 3.123,-8.188 0,-11.312 l -22.624,-22.624 c -3.124,-3.123 -8.188,-3.123 -11.312,0 l -9.944,9.936 v -14.056 c 0,-4.418 -3.582,-8 -8,-8 h -32 c -4.418,0 -8,3.582 -8,8 v 14.056 l -9.944,-9.936 c -3.124,-3.123 -8.188,-3.123 -11.312,0 l -22.624,22.624 c -3.123,3.124 -3.123,8.188 0,11.312 l 9.936,9.944 h -14.056 c -4.418,0 -8,3.582 -8,8 v 32 c 0,4.418 3.582,8 8,8 h 14.056 l -9.936,9.944 c -3.123,3.124 -3.123,8.188 0,11.312 l 22.624,22.624 c 3.124,3.123 8.188,3.123 11.312,0 l 9.944,-9.944 v 14.064 c 0,4.418 3.582,8 8,8 h 32 c 4.418,0 8,-3.582 8,-8 v -14.064 l 9.944,9.944 c 3.174,3.001 8.138,3.001 11.312,0 l 22.624,-22.624 c 3.123,-3.124 3.123,-8.188 0,-11.312 l -9.936,-9.944 h 14.056 c 4.418,0 8,-3.582 8,-8 z m -16,-8 h -18.792 c -3.375,0 -6.387,2.119 -7.528,5.296 -0.468,1.33 -1.002,2.635 -1.6,3.912 -1.451,3.067 -0.81,6.716 1.6,9.104 l 13.288,13.288 -11.368,11.312 -13.288,-13.312 c -2.386,-2.403 -6.025,-3.044 -9.088,-1.6 -1.267,0.6 -2.565,1.134 -3.888,1.6 -3.198,1.129 -5.336,4.152 -5.336,7.544 v 18.856 h -16 v -18.792 c 0,-3.392 -2.138,-6.415 -5.336,-7.544 -1.323,-0.466 -2.621,-1 -3.888,-1.6 -3.063,-1.444 -6.702,-0.803 -9.088,1.6 l -13.288,13.248 -11.312,-11.312 13.312,-13.288 c 2.41,-2.388 3.051,-6.037 1.6,-9.104 -0.598,-1.276 -1.132,-2.582 -1.6,-3.912 -1.151,-3.204 -4.203,-5.329 -7.608,-5.296 h -18.792 v -16 h 18.792 c 3.375,0 6.387,-2.119 7.528,-5.296 0.468,-1.33 1.002,-2.635 1.6,-3.912 1.451,-3.067 0.81,-6.716 -1.6,-9.104 l -13.232,-13.288 11.312,-11.312 13.296,13.312 c 2.388,2.41 6.037,3.051 9.104,1.6 1.257,-0.605 2.547,-1.139 3.864,-1.6 3.22,-1.137 5.363,-4.193 5.336,-7.608 v -18.792 h 16 v 18.792 c 0,3.392 2.138,6.415 5.336,7.544 1.317,0.461 2.607,0.995 3.864,1.6 3.067,1.451 6.716,0.81 9.104,-1.6 l 13.296,-13.288 11.312,11.312 -13.312,13.328 c -2.41,2.388 -3.051,6.037 -1.6,9.104 0.598,1.276 1.132,2.582 1.6,3.912 1.141,3.177 4.153,5.296 7.528,5.296 h 18.872 z"
         inkscape:connector-curvature="0" />
      <path
         style="fill:#fe3745;fill-opacity:1"
         id="path781"
         d="m 634.98821,103.02592 c -17.673,0 -32,14.327 -32,32 0,17.673 14.327,32 32,32 17.673,0 32,-14.327 32,-32 0,-17.673 -14.327,-32 -32,-32 z m 0,48 c -8.837,0 -16,-7.163 -16,-16 0,-8.837 7.163,-16 16,-16 8.837,0 16,7.163 16,16 0,8.837 -7.163,16 -16,16 z"
         inkscape:connector-curvature="0" />
    </g>
    <g
       id="g783"
       transform="translate(250.98821,-136.97408)">
</g>
    <g
       id="g785"
       transform="translate(250.98821,-136.97408)">
</g>
    <g
       id="g787"
       transform="translate(250.98821,-136.97408)">
</g>
    <g
       id="g789"
       transform="translate(250.98821,-136.97408)">
</g>
    <g
       id="g791"
       transform="translate(250.98821,-136.97408)">
</g>
    <g
       id="g793"
       transform="translate(250.98821,-136.97408)">
</g>
    <g
       id="g795"
       transform="translate(250.98821,-136.97408)">
</g>
    <g
       id="g797"
       transform="translate(250.98821,-136.97408)">
</g>
    <g
       id="g799"
       transform="translate(250.98821,-136.97408)">
</g>
    <g
       id="g801"
       transform="translate(250.98821,-136.97408)">
</g>
    <g
       id="g803"
       transform="translate(250.98821,-136.97408)">
</g>
    <g
       id="g805"
       transform="translate(250.98821,-136.97408)">
</g>
    <g
       id="g807"
       transform="translate(250.98821,-136.97408)">
</g>
    <g
       id="g809"
       transform="translate(250.98821,-136.97408)">
</g>
    <g
       id="g811"
       transform="translate(250.98821,-136.97408)">
</g>
  </g>
</svg>
