<?xml version="1.0" encoding="UTF-8" standalone="no"?>
<!-- Created with Inkscape (http://www.inkscape.org/) -->

<svg
   xmlns:dc="http://purl.org/dc/elements/1.1/"
   xmlns:cc="http://creativecommons.org/ns#"
   xmlns:rdf="http://www.w3.org/1999/02/22-rdf-syntax-ns#"
   xmlns:svg="http://www.w3.org/2000/svg"
   xmlns="http://www.w3.org/2000/svg"
   xmlns:xlink="http://www.w3.org/1999/xlink"
   xmlns:sodipodi="http://sodipodi.sourceforge.net/DTD/sodipodi-0.dtd"
   xmlns:inkscape="http://www.inkscape.org/namespaces/inkscape"
   width="120mm"
   height="120mm"
   viewBox="-60 -60 120 120"
   sodipodi:docname="mobile-app.svg"
   version="1.1"
   id="svg8668"
   inkscape:version="0.92.4 (f8dce91, 2019-08-02)">
  <defs
     id="defs8670">
    <linearGradient
       inkscape:collect="always"
       xlink:href="#linearGradient8215"
       id="linearGradient9235"
       gradientUnits="userSpaceOnUse"
       x1="80.886902"
       y1="150.34525"
       x2="182.94048"
       y2="242.57143"
       gradientTransform="translate(-108.47224,-177.35961)" />
    <linearGradient
       inkscape:collect="always"
       id="linearGradient8215">
      <stop
         style="stop-color:#ffaaaa;stop-opacity:1;"
         offset="0"
         id="stop8211" />
      <stop
         style="stop-color:#ffaaaa;stop-opacity:0;"
         offset="1"
         id="stop8213" />
    </linearGradient>
  </defs>
  <sodipodi:namedview
     pagecolor="#ffffff"
     bordercolor="#666666"
     borderopacity="1.0"
     inkscape:pageopacity="0.0"
     inkscape:pageshadow="2"
     inkscape:zoom="0.5"
     inkscape:cx="434.38724"
     inkscape:cy="123.43566"
     inkscape:document-units="mm"
     inkscape:current-layer="Template"
     showgrid="false"
     units="mm"
     showguides="true"
     inkscape:guide-bbox="true"
     inkscape:snap-global="true"
     inkscape:snap-bbox="true"
     inkscape:snap-bbox-midpoints="true"
     inkscape:window-width="1280"
     inkscape:window-height="751"
     inkscape:window-x="0"
     inkscape:window-y="25"
     inkscape:window-maximized="1"
     inkscape:bbox-paths="true"
     inkscape:bbox-nodes="true"
     inkscape:snap-bbox-edge-midpoints="true"
     inkscape:snap-grids="true"
     id="namedview8658">
    <sodipodi:guide
       orientation="1,0"
       position="226.771653543,226.771653543"
       id="guide2827"
       inkscape:locked="false" />
    <sodipodi:guide
       orientation="0,1"
       position="226.771653543,226.771653543"
       id="guide2829"
       inkscape:locked="false" />
    <inkscape:grid
       type="xygrid"
       id="grid3072"
       empspacing="10"
       visible="true"
       enabled="true"
       snapvisiblegridlinesonly="true"
       units="mm"
       dotted="false"
       spacingx="0.1mm"
       spacingy="0.1mm" />
  </sodipodi:namedview>
  <metadata
     id="metadata2822">
    <rdf:RDF>
      <cc:Work
         rdf:about="">
        <dc:format>image/svg+xml</dc:format>
        <dc:type
           rdf:resource="http://purl.org/dc/dcmitype/StillImage" />
        <dc:title></dc:title>
      </cc:Work>
    </rdf:RDF>
  </metadata>
  <g
     inkscape:label="Layer 1"
     inkscape:groupmode="layer"
     id="Template"
     style="fill:none;stroke:black;stroke-width:0.05">
    <g
       id="g10203"
       transform="matrix(0.84715563,0,0,0.84715563,14.130261,4.7786539)">
      <circle
         style="fill:url(#linearGradient9235);fill-opacity:1;stroke:none;stroke-width:0.2896882"
         cx="-16.60833"
         cy="-5.0875044"
         r="70.97361"
         id="circle9231" />
      <g
         transform="translate(-271.49621,-182.76452)"
         id="g9418">
        <g
           id="g1002"
           transform="translate(289.62259,71.70848)">
          <path
             id="path375"
             d="m -24.812703,146.79109 c 0,-0.58367 0.474662,-1.05833 1.058333,-1.05833 h 1.1557 c 0.106892,0 0.203729,-0.0643 0.244475,-0.16325 0.04101,-0.099 0.01826,-0.21272 -0.05741,-0.28839 l -12.570883,-12.57089 c -0.696383,-0.69638 -1.080029,-1.62665 -1.080029,-2.61911 0,-0.99245 0.383646,-1.92272 1.080029,-2.61911 l 0.525198,-0.52519 c 0.696383,-0.69639 1.626658,-1.08003 2.61911,-1.08003 0.992717,0 1.922727,0.38364 2.619111,1.08003 l 3.295121,3.29512 c 0.05053,0.0505 0.118268,0.0775 0.18706,0.0775 0.03413,0 0.06853,-0.006 0.101335,-0.0201 0.09896,-0.0407 0.163248,-0.13758 0.163248,-0.24447 V 103.1814 c 0,-2.04258 1.661584,-3.704165 3.704167,-3.704165 h 0.110067 c 1.116541,0 2.116666,0.49874 2.796381,1.282435 V 42.92441 c 0,-1.455208 -1.190625,-2.645833 -2.645834,-2.645833 h -56.018905 c -1.455208,0 -2.645833,1.190625 -2.645833,2.645833 v 103.04304 c 0,1.4552 1.190625,2.64583 2.645833,2.64583 h 52.713466 v -1.82219 z"
             style="fill:#2e4c89;stroke-width:0.26458332"
             inkscape:connector-curvature="0" />
          <path
             id="path377"
             d="m -36.062522,130.09112 c 0,-0.99245 0.383646,-1.92272 1.080029,-2.61911 l 0.525198,-0.52519 c 0.696383,-0.69639 1.626658,-1.08003 2.61911,-1.08003 0.992717,0 1.922727,0.38364 2.619111,1.08003 l 3.295121,3.29512 c 0.05053,0.0505 0.118268,0.0775 0.18706,0.0775 0.03413,0 0.06853,-0.006 0.101335,-0.0201 0.09896,-0.0407 0.163248,-0.13758 0.163248,-0.24447 V 103.1814 c 0,-1.76265 1.238779,-3.239028 2.890573,-3.611032 V 51.695612 c 0,-0.767821 -0.628385,-1.396206 -1.396206,-1.396206 h -51.077812 c -0.767821,0 -1.395942,0.628385 -1.395942,1.396206 v 78.556118 c 0,0.76782 0.628121,1.39567 1.395942,1.39567 h 39.336133 c -0.221985,-0.48074 -0.3429,-1.00806 -0.3429,-1.55628 z"
             style="fill:#c3ddf4;stroke-width:0.26458332"
             inkscape:connector-curvature="0" />
          <path
             id="path379"
             d="M -71.201834,130.25199 V 51.695612 c 0,-0.767821 0.628121,-1.396206 1.395942,-1.396206 h -5.249863 c -0.767821,0 -1.395942,0.628385 -1.395942,1.396206 v 78.556118 c 0,0.76782 0.628121,1.39567 1.395942,1.39567 h 5.249863 c -0.767821,2.7e-4 -1.395942,-0.62759 -1.395942,-1.39541 z"
             style="fill:#aec1ed;stroke-width:0.26458332"
             inkscape:connector-curvature="0" />
          <g
             transform="matrix(0.26458333,0,0,0.26458333,-100.99524,40.278577)"
             id="g387">
            <circle
               id="circle381"
               r="18.561001"
               cy="374.01999"
               cx="194.56"
               style="fill:#1a2b63" />
            <path
               id="path383"
               d="m 234.873,26.342 h -57.368 c -4.142,0 -7.5,-3.357 -7.5,-7.5 0,-4.143 3.358,-7.5 7.5,-7.5 h 57.368 c 4.142,0 7.5,3.357 7.5,7.5 0,4.143 -3.358,7.5 -7.5,7.5 z"
               style="fill:#1a2b63"
               inkscape:connector-curvature="0" />
            <circle
               id="circle385"
               r="8.4359999"
               cy="18.841999"
               cx="154.25"
               style="fill:#1a2b63" />
          </g>
          <path
             id="path389"
             d="m -23.977943,50.299406 h -51.077812 c -0.767821,0 -1.395942,0.628385 -1.395942,1.396206 v 6.196542 h 53.870225 v -6.196542 c -2.65e-4,-0.767821 -0.62865,-1.396206 -1.396471,-1.396206 z"
             style="fill:#ff9518;stroke-width:0.26458332"
             inkscape:connector-curvature="0" />
          <path
             id="path391"
             d="m -69.805892,50.299406 h -5.249863 c -0.767821,0 -1.395942,0.628385 -1.395942,1.396206 v 6.196542 h 5.249863 v -6.196542 c 0,-0.767821 0.628121,-1.396206 1.395942,-1.396206 z"
             style="fill:#ef8318;stroke-width:0.26458332"
             inkscape:connector-curvature="0" />
          <path
             id="path393"
             d="m -26.709501,99.329872 c 0,1.455208 -1.190625,2.645838 -2.645834,2.645838 h -40.322499 c -1.455208,0 -2.645833,-1.19063 -2.645833,-2.645838 V 86.47271 c 0,-1.455209 1.190625,-2.645834 2.645833,-2.645834 h 40.322499 c 1.455209,0 2.645834,1.190625 2.645834,2.645834 z"
             style="fill:#445ea0;stroke-width:0.26458332"
             inkscape:connector-curvature="0" />
          <path
             id="path395"
             d="m -36.062522,130.09112 c 0,-0.99245 0.383646,-1.92272 1.080029,-2.61911 l 0.525198,-0.52519 c 0.696383,-0.69639 1.626658,-1.08003 2.61911,-1.08003 0.992717,0 1.922727,0.38364 2.619111,1.08003 l 3.295121,3.29512 c 0.05053,0.0505 0.118268,0.0775 0.18706,0.0775 0.03413,0 0.06853,-0.006 0.101335,-0.0201 0.09896,-0.0407 0.163248,-0.13758 0.163248,-0.24447 v -24.00062 h -50.979387 v 24.19773 c 0,0.76782 0.628121,1.39568 1.395942,1.39568 h 39.336133 c -0.221985,-0.48101 -0.3429,-1.00833 -0.3429,-1.55655 z"
             style="fill:#eef6ff;stroke-width:0.26458332"
             inkscape:connector-curvature="0" />
          <path
             id="path397"
             d="m -71.201834,130.25199 v -24.19773 h -5.249863 v 24.19773 c 0,0.76782 0.628121,1.39568 1.395942,1.39568 h 5.249863 c -0.767821,0 -1.395942,-0.62786 -1.395942,-1.39568 z"
             style="fill:#d9eafc;stroke-width:0.26458332"
             inkscape:connector-curvature="0" />
          <g
             transform="matrix(0.26458333,0,0,0.26458333,-100.99524,40.278577)"
             id="g405">
            <path
               id="path399"
               d="M 210.444,276.808 H 130.68 c -4.142,0 -7.5,-3.357 -7.5,-7.5 0,-4.143 3.358,-7.5 7.5,-7.5 h 79.765 c 4.142,0 7.5,3.357 7.5,7.5 -0.001,4.142 -3.359,7.5 -7.501,7.5 z"
               style="fill:#5dc1d8"
               inkscape:connector-curvature="0" />
            <path
               id="path401"
               d="M 210.444,301.673 H 130.68 c -4.142,0 -7.5,-3.358 -7.5,-7.5 0,-4.143 3.358,-7.5 7.5,-7.5 h 79.765 c 4.142,0 7.5,3.357 7.5,7.5 -0.001,4.142 -3.359,7.5 -7.501,7.5 z"
               style="fill:#5dc1d8"
               inkscape:connector-curvature="0" />
            <path
               id="path403"
               d="M 170.721,326.537 H 130.68 c -4.142,0 -7.5,-3.357 -7.5,-7.5 0,-4.143 3.358,-7.5 7.5,-7.5 h 40.041 c 4.142,0 7.5,3.357 7.5,7.5 0,4.143 -3.358,7.5 -7.5,7.5 z"
               style="fill:#5dc1d8"
               inkscape:connector-curvature="0" />
          </g>
          <path
             id="path407"
             d="m -35.152091,124.8283 c -0.405341,0 -0.814387,-0.12409 -1.167077,-0.38074 -0.885825,-0.64532 -1.080558,-1.88674 -0.435239,-2.77257 l 2.596885,-3.56341 -2.596356,-3.56314 c -0.645319,-0.88582 -0.450586,-2.12698 0.435239,-2.77257 0.88609,-0.64532 2.126986,-0.45032 2.772569,0.43524 l 3.447785,4.73181 c 0.507471,0.69665 0.507471,1.64095 0,2.33733 l -3.448314,4.73207 c -0.388409,0.53287 -0.992717,0.81571 -1.605492,0.81598 z"
             style="fill:#ff9518;stroke-width:0.26458332"
             inkscape:connector-curvature="0" />
          <path
             id="path409"
             d="m -22.394676,156.56877 v 18.26472 c 9.694068,-1.63671 18.6565639,-5.4229 26.3797513,-10.8548 v -7.40992 z"
             style="fill:#ef8318;stroke-width:0.26458332"
             inkscape:connector-curvature="0" />
          <path
             id="path411"
             d="m -22.394676,156.56877 v 18.26472 c 1.775883,-0.29978 3.526366,-0.67337 5.250127,-1.11443 v -17.15029 z"
             style="fill:#db722c;stroke-width:0.26458332"
             inkscape:connector-curvature="0" />
          <path
             id="path413"
             d="m 4.4430691,145.73276 v -27.49814 c 0,-2.18282 -1.7859375,-3.96875 -3.96874996,-3.96875 H 0.36425247 c -1.61924997,0 -3.01810207,0.98398 -3.63352287,2.3823 -0.6154208,-1.39832 -2.0142729,-2.3823 -3.6335229,-2.3823 h -0.1103312 c -1.61925,0 -3.0181025,0.98398 -3.6335225,2.3823 -0.615421,-1.39832 -2.014273,-2.3823 -3.633523,-2.3823 h -0.110067 c -1.371071,0 -2.584979,0.70511 -3.29856,1.77006 v -12.85452 c 0,-2.18281 -1.785938,-3.968748 -3.96875,-3.968748 h -0.110067 c -2.182812,0 -3.96875,1.785938 -3.96875,3.968748 v 26.8732 l -3.295121,-3.29512 c -1.543314,-1.54331 -4.069027,-1.54331 -5.612606,0 l -0.524933,0.5252 c -1.543579,1.54331 -1.543579,4.06929 0,5.6126 l 12.835466,12.83547 z"
             style="fill:#ffe2b8;stroke-width:0.26458332"
             inkscape:connector-curvature="0" />
          <path
             id="path415"
             d="m -17.08396,145.73276 -12.835466,-12.83547 c -1.543579,-1.54331 -1.543579,-4.06929 0,-5.6126 l 0.524933,-0.5252 c 0.05821,-0.0582 0.120385,-0.1098 0.18124,-0.16378 -1.553898,-1.37318 -3.946261,-1.32133 -5.431367,0.16378 l -0.524933,0.5252 c -1.543579,1.54331 -1.543579,4.06929 0,5.6126 l 12.835466,12.83547 z"
             style="fill:#ffc987;stroke-width:0.26458332"
             inkscape:connector-curvature="0" />
          <path
             id="path417"
             d="m 6.6679503,155.51044 c 0,0.7276 -0.5953125,1.32291 -1.3229166,1.32291 H -23.75437 c -0.727604,0 -1.322917,-0.59531 -1.322917,-1.32291 v -8.71908 c 0,-0.72761 0.595313,-1.32292 1.322917,-1.32292 H 5.3450337 c 0.7276041,0 1.3229166,0.59531 1.3229166,1.32292 z"
             style="fill:#ff9518;stroke-width:0.26458332"
             inkscape:connector-curvature="0" />
          <path
             id="path419"
             d="m -19.827424,155.51044 v -8.71908 c 0,-0.72761 0.595312,-1.32292 1.322916,-1.32292 h -5.250127 c -0.727604,0 -1.322916,0.59531 -1.322916,1.32292 v 8.71908 c 0,0.7276 0.595312,1.32291 1.322916,1.32291 h 5.250127 c -0.727604,0 -1.322916,-0.59531 -1.322916,-1.32291 z"
             style="fill:#ef8318;stroke-width:0.26458332"
             inkscape:connector-curvature="0" />
          <circle
             id="circle421"
             r="2.4590373"
             cy="151.15222"
             cx="0.85611612"
             style="fill:#db722c;stroke-width:0.26458332" />
          <path
             id="path423"
             d="m 25.662388,103.78995 c 0,0.72761 -0.595313,1.32292 -1.322917,1.32292 h -38.043379 c -0.727604,0 -1.322916,-0.59531 -1.322916,-1.32292 V 76.342872 c 0,-0.727604 0.595312,-1.322916 1.322916,-1.322916 h 38.043379 c 0.727604,0 1.322917,0.595312 1.322917,1.322916 z"
             style="fill:#fe3745;stroke-width:0.26458332"
             inkscape:connector-curvature="0" />
          <path
             id="path425"
             d="m -1.3272288,84.011556 c 0,-1.455209 1.03108128,-2.050521 2.29129168,-1.322917 l 10.48676012,6.05446 c 1.260211,0.727604 1.260211,1.918229 0,2.645834 L 0.96406288,97.443658 c -1.2602104,0.727604 -2.29129168,0.132291 -2.29129168,-1.322917 z"
             style="fill:#ffffff;stroke-width:0.26458332"
             inkscape:connector-curvature="0" />
          <path
             id="path427"
             d="m 22.478392,60.968729 c -3.281892,0 -5.952067,-2.670175 -5.952067,-5.952067 0,-0.544777 0.07488,-1.072091 0.212725,-1.573477 h -30.442958 c -0.727604,0 -1.322916,0.595313 -1.322916,1.322917 v 15.69376 c 0,0.727604 0.595312,1.322917 1.322916,1.322917 h 38.043379 c 0.727604,0 1.322917,-0.595313 1.322917,-1.322917 V 60.041629 c -0.921544,0.586052 -2.013215,0.9271 -3.183996,0.9271 z"
             style="fill:#ffaf10;stroke-width:0.26458332"
             inkscape:connector-curvature="0" />
          <path
             id="path429"
             d="M -9.7766974,103.78995 V 76.342872 c 0,-0.727604 0.5953125,-1.322916 1.3229167,-1.322916 h -5.2501273 c -0.727604,0 -1.322916,0.595312 -1.322916,1.322916 v 27.447078 c 0,0.72761 0.595312,1.32292 1.322916,1.32292 h 5.2501273 c -0.7276042,0 -1.3229167,-0.59531 -1.3229167,-1.32292 z"
             style="fill:#b7092b;stroke-width:0.26458332"
             inkscape:connector-curvature="0" />
          <path
             id="path431"
             d="m -9.7766974,70.459862 v -15.69376 c 0,-0.727604 0.5953125,-1.322917 1.3229167,-1.322917 h -5.2501273 c -0.727604,0 -1.322916,0.595313 -1.322916,1.322917 v 15.69376 c 0,0.727604 0.595312,1.322917 1.322916,1.322917 h 5.2501273 c -0.7276042,0 -1.3229167,-0.595313 -1.3229167,-1.322917 z"
             style="fill:#ef9614;stroke-width:0.26458332"
             inkscape:connector-curvature="0" />
          <circle
             id="circle433"
             r="6.21665"
             cy="55.016663"
             cx="22.477865"
             style="fill:#b7092b;stroke-width:0.26458332" />
          <path
             id="path435"
             d="m 22.66704,58.411531 c -0.730779,0 -1.322917,-0.592138 -1.322917,-1.322917 v -2.877079 c -0.545042,-0.163512 -0.942181,-0.669131 -0.942181,-1.267354 0,-0.730779 0.592137,-1.322917 1.322916,-1.322917 h 0.942182 c 0.730779,0 1.322916,0.592138 1.322916,1.322917 v 4.144433 c 0,0.730779 -0.592137,1.322917 -1.322916,1.322917 z"
             style="fill:#eef6ff;stroke-width:0.26458332"
             inkscape:connector-curvature="0" />
          <g
             transform="matrix(0.26458333,0,0,0.26458333,-100.99524,40.278577)"
             id="g441">
            <path
               id="path437"
               d="m 420.718,80.223 h -71.596 c -4.143,0 -7.5,-3.358 -7.5,-7.5 0,-4.143 3.357,-7.5 7.5,-7.5 h 71.596 c 4.143,0 7.5,3.357 7.5,7.5 0,4.142 -3.358,7.5 -7.5,7.5 z"
               style="fill:#db722c"
               inkscape:connector-curvature="0" />
            <path
               id="path439"
               d="m 442.363,103.414 h -93.241 c -4.143,0 -7.5,-3.357 -7.5,-7.5 0,-4.143 3.357,-7.5 7.5,-7.5 h 93.241 c 4.143,0 7.5,3.357 7.5,7.5 0,4.143 -3.357,7.5 -7.5,7.5 z"
               style="fill:#db722c"
               inkscape:connector-curvature="0" />
          </g>
          <circle
             id="circle443"
             r="9.8768959"
             cy="70.970245"
             cx="-49.517906"
             style="fill:#ef8318;stroke-width:0.26458332" />
          <circle
             id="circle445"
             r="7.9375"
             cy="70.970245"
             cx="-49.517906"
             style="fill:#ff9518;stroke-width:0.26458332" />
          <path
             id="path447"
             d="m -46.406937,73.224758 h -1.762918 v -0.424392 c 1.502833,-0.550069 2.577571,-1.989137 2.577571,-3.682206 0,-2.167202 -1.757363,-3.924565 -3.924565,-3.924565 -2.167467,0 -3.924565,1.757363 -3.924565,3.924565 0,1.693333 1.074738,3.132137 2.577571,3.682206 v 0.424392 h -1.762918 c -0.704057,0 -1.27979,0.576262 -1.27979,1.280319 v 3.077897 c 1.257565,0.836348 2.766219,1.324769 4.389702,1.324769 1.623483,0 3.132402,-0.488421 4.389702,-1.324769 v -3.078427 c 2.65e-4,-0.703791 -0.575733,-1.279789 -1.27979,-1.279789 z"
             style="fill:#ffffff;stroke-width:0.26458332"
             inkscape:connector-curvature="0" />
          <path
             id="path449"
             d="m -58.397324,96.737749 c 0,0.727604 -0.595312,1.322917 -1.322917,1.322917 h -7.672916 c -0.727604,0 -1.322917,-0.595313 -1.322917,-1.322917 v -7.672916 c 0,-0.727605 0.595313,-1.322917 1.322917,-1.322917 h 7.672916 c 0.727605,0 1.322917,0.595312 1.322917,1.322917 z"
             style="fill:#ff9518;stroke-width:0.26458332"
             inkscape:connector-curvature="0" />
          <path
             id="path451"
             d="m -65.406401,96.737749 v -7.672916 c 0,-0.727605 0.595313,-1.322917 1.322917,-1.322917 h -3.309673 c -0.727604,0 -1.322917,0.595312 -1.322917,1.322917 v 7.672916 c 0,0.727604 0.595313,1.322917 1.322917,1.322917 h 3.309673 c -0.727604,0 -1.322917,-0.595313 -1.322917,-1.322917 z"
             style="fill:#ef8318;stroke-width:0.26458332"
             inkscape:connector-curvature="0" />
          <g
             transform="matrix(0.26458333,0,0,0.26458333,-100.99524,40.278577)"
             id="g457">
            <path
               id="path453"
               d="m 227.666,198.889 c 0,-2.823 0.963,-5.419 2.565,-7.5 h -53.565 c -4.142,0 -7.5,3.357 -7.5,7.5 0,4.143 3.358,7.5 7.5,7.5 h 53.565 c -1.601,-2.081 -2.565,-4.677 -2.565,-7.5 z"
               style="fill:#1a2b63"
               inkscape:connector-curvature="0" />
            <path
               id="path455"
               d="m 262,191.389 h -12.232 c 1.602,2.081 2.565,4.677 2.565,7.5 0,2.823 -0.963,5.419 -2.565,7.5 H 262 c 4.143,0 7.5,-3.357 7.5,-7.5 0,-4.143 -3.357,-7.5 -7.5,-7.5 z"
               style="fill:#1a2b63"
               inkscape:connector-curvature="0" />
          </g>
          <circle
             id="circle459"
             r="3.5276897"
             cy="92.901558"
             cx="-37.495239"
             style="fill:#ff9518;stroke-width:0.26458332" />
        </g>
      </g>
    </g>
  </g>
</svg>
