<?xml version="1.0" encoding="UTF-8" standalone="no"?>
<!-- Created with Inkscape (http://www.inkscape.org/) -->

<svg
   xmlns:dc="http://purl.org/dc/elements/1.1/"
   xmlns:cc="http://creativecommons.org/ns#"
   xmlns:rdf="http://www.w3.org/1999/02/22-rdf-syntax-ns#"
   xmlns:svg="http://www.w3.org/2000/svg"
   xmlns="http://www.w3.org/2000/svg"
   xmlns:xlink="http://www.w3.org/1999/xlink"
   xmlns:sodipodi="http://sodipodi.sourceforge.net/DTD/sodipodi-0.dtd"
   xmlns:inkscape="http://www.inkscape.org/namespaces/inkscape"
   width="600px"
   height="300px"
   viewBox="0 0 600 300"
   version="1.1"
   id="SVGRoot"
   inkscape:version="0.92.4 (f8dce91, 2019-08-02)"
   sodipodi:docname="services_ui.svg">
  <defs
     id="defs332">
    <linearGradient
       inkscape:collect="always"
       xlink:href="#linearGradient83516"
       id="linearGradient83518"
       x1="-203.93333"
       y1="-44.781616"
       x2="-71.377075"
       y2="47.035416"
       gradientUnits="userSpaceOnUse"
       gradientTransform="matrix(4.3840582,0,0,3.7534031,936.41247,167.08456)" />
    <linearGradient
       inkscape:collect="always"
       id="linearGradient83516">
      <stop
         style="stop-color:#ffaaaa;stop-opacity:1;"
         offset="0"
         id="stop83512" />
      <stop
         style="stop-color:#ffaaaa;stop-opacity:0;"
         offset="1"
         id="stop83514" />
    </linearGradient>
  </defs>
  <sodipodi:namedview
     id="base"
     pagecolor="#ffffff"
     bordercolor="#666666"
     borderopacity="1.0"
     inkscape:pageopacity="0.0"
     inkscape:pageshadow="2"
     inkscape:zoom="0.98994949"
     inkscape:cx="262.9731"
     inkscape:cy="78.974979"
     inkscape:document-units="px"
     inkscape:current-layer="layer1"
     showgrid="false"
     inkscape:window-width="1280"
     inkscape:window-height="751"
     inkscape:window-x="0"
     inkscape:window-y="25"
     inkscape:window-maximized="1" />
  <metadata
     id="metadata335">
    <rdf:RDF>
      <cc:Work
         rdf:about="">
        <dc:format>image/svg+xml</dc:format>
        <dc:type
           rdf:resource="http://purl.org/dc/dcmitype/StillImage" />
        <dc:title></dc:title>
      </cc:Work>
    </rdf:RDF>
  </metadata>
  <g
     inkscape:label="Layer 1"
     inkscape:groupmode="layer"
     id="layer1">
    <rect
       style="fill:url(#linearGradient83518);fill-opacity:1;stroke:#000000;stroke-width:0.05366404"
       id="rect83510"
       width="600.85345"
       height="299.91254"
       x="0.59873492"
       y="-0.97407913" />
    <g
       style="fill:none;stroke:#000000;stroke-width:0.05"
       id="g9418"
       transform="matrix(1.7105107,0,0,1.7105107,-268.76557,-151.78821)">
      <g
         transform="translate(289.62259,71.70848)"
         id="g1002">
        <path
           inkscape:connector-curvature="0"
           style="fill:#2e4c89;stroke-width:0.26458332"
           d="m -24.812703,146.79109 c 0,-0.58367 0.474662,-1.05833 1.058333,-1.05833 h 1.1557 c 0.106892,0 0.203729,-0.0643 0.244475,-0.16325 0.04101,-0.099 0.01826,-0.21272 -0.05741,-0.28839 l -12.570883,-12.57089 c -0.696383,-0.69638 -1.080029,-1.62665 -1.080029,-2.61911 0,-0.99245 0.383646,-1.92272 1.080029,-2.61911 l 0.525198,-0.52519 c 0.696383,-0.69639 1.626658,-1.08003 2.61911,-1.08003 0.992717,0 1.922727,0.38364 2.619111,1.08003 l 3.295121,3.29512 c 0.05053,0.0505 0.118268,0.0775 0.18706,0.0775 0.03413,0 0.06853,-0.006 0.101335,-0.0201 0.09896,-0.0407 0.163248,-0.13758 0.163248,-0.24447 V 103.1814 c 0,-2.04258 1.661584,-3.704165 3.704167,-3.704165 h 0.110067 c 1.116541,0 2.116666,0.49874 2.796381,1.282435 V 42.92441 c 0,-1.455208 -1.190625,-2.645833 -2.645834,-2.645833 h -56.018905 c -1.455208,0 -2.645833,1.190625 -2.645833,2.645833 v 103.04304 c 0,1.4552 1.190625,2.64583 2.645833,2.64583 h 52.713466 v -1.82219 z"
           id="path375" />
        <path
           inkscape:connector-curvature="0"
           style="fill:#c3ddf4;stroke-width:0.26458332"
           d="m -36.062522,130.09112 c 0,-0.99245 0.383646,-1.92272 1.080029,-2.61911 l 0.525198,-0.52519 c 0.696383,-0.69639 1.626658,-1.08003 2.61911,-1.08003 0.992717,0 1.922727,0.38364 2.619111,1.08003 l 3.295121,3.29512 c 0.05053,0.0505 0.118268,0.0775 0.18706,0.0775 0.03413,0 0.06853,-0.006 0.101335,-0.0201 0.09896,-0.0407 0.163248,-0.13758 0.163248,-0.24447 V 103.1814 c 0,-1.76265 1.238779,-3.239028 2.890573,-3.611032 V 51.695612 c 0,-0.767821 -0.628385,-1.396206 -1.396206,-1.396206 h -51.077812 c -0.767821,0 -1.395942,0.628385 -1.395942,1.396206 v 78.556118 c 0,0.76782 0.628121,1.39567 1.395942,1.39567 h 39.336133 c -0.221985,-0.48074 -0.3429,-1.00806 -0.3429,-1.55628 z"
           id="path377" />
        <path
           inkscape:connector-curvature="0"
           style="fill:#aec1ed;stroke-width:0.26458332"
           d="M -71.201834,130.25199 V 51.695612 c 0,-0.767821 0.628121,-1.396206 1.395942,-1.396206 h -5.249863 c -0.767821,0 -1.395942,0.628385 -1.395942,1.396206 v 78.556118 c 0,0.76782 0.628121,1.39567 1.395942,1.39567 h 5.249863 c -0.767821,2.7e-4 -1.395942,-0.62759 -1.395942,-1.39541 z"
           id="path379" />
        <g
           id="g387"
           transform="matrix(0.26458333,0,0,0.26458333,-100.99524,40.278577)">
          <circle
             style="fill:#1a2b63"
             cx="194.56"
             cy="374.01999"
             r="18.561001"
             id="circle381" />
          <path
             inkscape:connector-curvature="0"
             style="fill:#1a2b63"
             d="m 234.873,26.342 h -57.368 c -4.142,0 -7.5,-3.357 -7.5,-7.5 0,-4.143 3.358,-7.5 7.5,-7.5 h 57.368 c 4.142,0 7.5,3.357 7.5,7.5 0,4.143 -3.358,7.5 -7.5,7.5 z"
             id="path383" />
          <circle
             style="fill:#1a2b63"
             cx="154.25"
             cy="18.841999"
             r="8.4359999"
             id="circle385" />
        </g>
        <path
           inkscape:connector-curvature="0"
           style="fill:#ff9518;stroke-width:0.26458332"
           d="m -23.977943,50.299406 h -51.077812 c -0.767821,0 -1.395942,0.628385 -1.395942,1.396206 v 6.196542 h 53.870225 v -6.196542 c -2.65e-4,-0.767821 -0.62865,-1.396206 -1.396471,-1.396206 z"
           id="path389" />
        <path
           inkscape:connector-curvature="0"
           style="fill:#ef8318;stroke-width:0.26458332"
           d="m -69.805892,50.299406 h -5.249863 c -0.767821,0 -1.395942,0.628385 -1.395942,1.396206 v 6.196542 h 5.249863 v -6.196542 c 0,-0.767821 0.628121,-1.396206 1.395942,-1.396206 z"
           id="path391" />
        <path
           inkscape:connector-curvature="0"
           style="fill:#445ea0;stroke-width:0.26458332"
           d="m -26.709501,99.329872 c 0,1.455208 -1.190625,2.645838 -2.645834,2.645838 h -40.322499 c -1.455208,0 -2.645833,-1.19063 -2.645833,-2.645838 V 86.47271 c 0,-1.455209 1.190625,-2.645834 2.645833,-2.645834 h 40.322499 c 1.455209,0 2.645834,1.190625 2.645834,2.645834 z"
           id="path393" />
        <path
           inkscape:connector-curvature="0"
           style="fill:#eef6ff;stroke-width:0.26458332"
           d="m -36.062522,130.09112 c 0,-0.99245 0.383646,-1.92272 1.080029,-2.61911 l 0.525198,-0.52519 c 0.696383,-0.69639 1.626658,-1.08003 2.61911,-1.08003 0.992717,0 1.922727,0.38364 2.619111,1.08003 l 3.295121,3.29512 c 0.05053,0.0505 0.118268,0.0775 0.18706,0.0775 0.03413,0 0.06853,-0.006 0.101335,-0.0201 0.09896,-0.0407 0.163248,-0.13758 0.163248,-0.24447 v -24.00062 h -50.979387 v 24.19773 c 0,0.76782 0.628121,1.39568 1.395942,1.39568 h 39.336133 c -0.221985,-0.48101 -0.3429,-1.00833 -0.3429,-1.55655 z"
           id="path395" />
        <path
           inkscape:connector-curvature="0"
           style="fill:#d9eafc;stroke-width:0.26458332"
           d="m -71.201834,130.25199 v -24.19773 h -5.249863 v 24.19773 c 0,0.76782 0.628121,1.39568 1.395942,1.39568 h 5.249863 c -0.767821,0 -1.395942,-0.62786 -1.395942,-1.39568 z"
           id="path397" />
        <g
           id="g405"
           transform="matrix(0.26458333,0,0,0.26458333,-100.99524,40.278577)">
          <path
             inkscape:connector-curvature="0"
             style="fill:#5dc1d8"
             d="M 210.444,276.808 H 130.68 c -4.142,0 -7.5,-3.357 -7.5,-7.5 0,-4.143 3.358,-7.5 7.5,-7.5 h 79.765 c 4.142,0 7.5,3.357 7.5,7.5 -0.001,4.142 -3.359,7.5 -7.501,7.5 z"
             id="path399" />
          <path
             inkscape:connector-curvature="0"
             style="fill:#5dc1d8"
             d="M 210.444,301.673 H 130.68 c -4.142,0 -7.5,-3.358 -7.5,-7.5 0,-4.143 3.358,-7.5 7.5,-7.5 h 79.765 c 4.142,0 7.5,3.357 7.5,7.5 -0.001,4.142 -3.359,7.5 -7.501,7.5 z"
             id="path401" />
          <path
             inkscape:connector-curvature="0"
             style="fill:#5dc1d8"
             d="M 170.721,326.537 H 130.68 c -4.142,0 -7.5,-3.357 -7.5,-7.5 0,-4.143 3.358,-7.5 7.5,-7.5 h 40.041 c 4.142,0 7.5,3.357 7.5,7.5 0,4.143 -3.358,7.5 -7.5,7.5 z"
             id="path403" />
        </g>
        <path
           inkscape:connector-curvature="0"
           style="fill:#ff9518;stroke-width:0.26458332"
           d="m -35.152091,124.8283 c -0.405341,0 -0.814387,-0.12409 -1.167077,-0.38074 -0.885825,-0.64532 -1.080558,-1.88674 -0.435239,-2.77257 l 2.596885,-3.56341 -2.596356,-3.56314 c -0.645319,-0.88582 -0.450586,-2.12698 0.435239,-2.77257 0.88609,-0.64532 2.126986,-0.45032 2.772569,0.43524 l 3.447785,4.73181 c 0.507471,0.69665 0.507471,1.64095 0,2.33733 l -3.448314,4.73207 c -0.388409,0.53287 -0.992717,0.81571 -1.605492,0.81598 z"
           id="path407" />
        <path
           inkscape:connector-curvature="0"
           style="fill:#ef8318;stroke-width:0.26458332"
           d="m -22.394676,156.56877 v 18.26472 c 9.694068,-1.63671 18.6565639,-5.4229 26.3797513,-10.8548 v -7.40992 z"
           id="path409" />
        <path
           inkscape:connector-curvature="0"
           style="fill:#db722c;stroke-width:0.26458332"
           d="m -22.394676,156.56877 v 18.26472 c 1.775883,-0.29978 3.526366,-0.67337 5.250127,-1.11443 v -17.15029 z"
           id="path411" />
        <path
           inkscape:connector-curvature="0"
           style="fill:#ffe2b8;stroke-width:0.26458332"
           d="m 4.4430691,145.73276 v -27.49814 c 0,-2.18282 -1.7859375,-3.96875 -3.96874996,-3.96875 H 0.36425247 c -1.61924997,0 -3.01810207,0.98398 -3.63352287,2.3823 -0.6154208,-1.39832 -2.0142729,-2.3823 -3.6335229,-2.3823 h -0.1103312 c -1.61925,0 -3.0181025,0.98398 -3.6335225,2.3823 -0.615421,-1.39832 -2.014273,-2.3823 -3.633523,-2.3823 h -0.110067 c -1.371071,0 -2.584979,0.70511 -3.29856,1.77006 v -12.85452 c 0,-2.18281 -1.785938,-3.968748 -3.96875,-3.968748 h -0.110067 c -2.182812,0 -3.96875,1.785938 -3.96875,3.968748 v 26.8732 l -3.295121,-3.29512 c -1.543314,-1.54331 -4.069027,-1.54331 -5.612606,0 l -0.524933,0.5252 c -1.543579,1.54331 -1.543579,4.06929 0,5.6126 l 12.835466,12.83547 z"
           id="path413" />
        <path
           inkscape:connector-curvature="0"
           style="fill:#ffc987;stroke-width:0.26458332"
           d="m -17.08396,145.73276 -12.835466,-12.83547 c -1.543579,-1.54331 -1.543579,-4.06929 0,-5.6126 l 0.524933,-0.5252 c 0.05821,-0.0582 0.120385,-0.1098 0.18124,-0.16378 -1.553898,-1.37318 -3.946261,-1.32133 -5.431367,0.16378 l -0.524933,0.5252 c -1.543579,1.54331 -1.543579,4.06929 0,5.6126 l 12.835466,12.83547 z"
           id="path415" />
        <path
           inkscape:connector-curvature="0"
           style="fill:#ff9518;stroke-width:0.26458332"
           d="m 6.6679503,155.51044 c 0,0.7276 -0.5953125,1.32291 -1.3229166,1.32291 H -23.75437 c -0.727604,0 -1.322917,-0.59531 -1.322917,-1.32291 v -8.71908 c 0,-0.72761 0.595313,-1.32292 1.322917,-1.32292 H 5.3450337 c 0.7276041,0 1.3229166,0.59531 1.3229166,1.32292 z"
           id="path417" />
        <path
           inkscape:connector-curvature="0"
           style="fill:#ef8318;stroke-width:0.26458332"
           d="m -19.827424,155.51044 v -8.71908 c 0,-0.72761 0.595312,-1.32292 1.322916,-1.32292 h -5.250127 c -0.727604,0 -1.322916,0.59531 -1.322916,1.32292 v 8.71908 c 0,0.7276 0.595312,1.32291 1.322916,1.32291 h 5.250127 c -0.727604,0 -1.322916,-0.59531 -1.322916,-1.32291 z"
           id="path419" />
        <circle
           style="fill:#db722c;stroke-width:0.26458332"
           cx="0.85611612"
           cy="151.15222"
           r="2.4590373"
           id="circle421" />
        <path
           inkscape:connector-curvature="0"
           style="fill:#fe3745;stroke-width:0.26458332"
           d="m 25.662388,103.78995 c 0,0.72761 -0.595313,1.32292 -1.322917,1.32292 h -38.043379 c -0.727604,0 -1.322916,-0.59531 -1.322916,-1.32292 V 76.342872 c 0,-0.727604 0.595312,-1.322916 1.322916,-1.322916 h 38.043379 c 0.727604,0 1.322917,0.595312 1.322917,1.322916 z"
           id="path423" />
        <path
           inkscape:connector-curvature="0"
           style="fill:#ffffff;stroke-width:0.26458332"
           d="m -1.3272288,84.011556 c 0,-1.455209 1.03108128,-2.050521 2.29129168,-1.322917 l 10.48676012,6.05446 c 1.260211,0.727604 1.260211,1.918229 0,2.645834 L 0.96406288,97.443658 c -1.2602104,0.727604 -2.29129168,0.132291 -2.29129168,-1.322917 z"
           id="path425" />
        <path
           inkscape:connector-curvature="0"
           style="fill:#ffaf10;stroke-width:0.26458332"
           d="m 22.478392,60.968729 c -3.281892,0 -5.952067,-2.670175 -5.952067,-5.952067 0,-0.544777 0.07488,-1.072091 0.212725,-1.573477 h -30.442958 c -0.727604,0 -1.322916,0.595313 -1.322916,1.322917 v 15.69376 c 0,0.727604 0.595312,1.322917 1.322916,1.322917 h 38.043379 c 0.727604,0 1.322917,-0.595313 1.322917,-1.322917 V 60.041629 c -0.921544,0.586052 -2.013215,0.9271 -3.183996,0.9271 z"
           id="path427" />
        <path
           inkscape:connector-curvature="0"
           style="fill:#b7092b;stroke-width:0.26458332"
           d="M -9.7766974,103.78995 V 76.342872 c 0,-0.727604 0.5953125,-1.322916 1.3229167,-1.322916 h -5.2501273 c -0.727604,0 -1.322916,0.595312 -1.322916,1.322916 v 27.447078 c 0,0.72761 0.595312,1.32292 1.322916,1.32292 h 5.2501273 c -0.7276042,0 -1.3229167,-0.59531 -1.3229167,-1.32292 z"
           id="path429" />
        <path
           inkscape:connector-curvature="0"
           style="fill:#ef9614;stroke-width:0.26458332"
           d="m -9.7766974,70.459862 v -15.69376 c 0,-0.727604 0.5953125,-1.322917 1.3229167,-1.322917 h -5.2501273 c -0.727604,0 -1.322916,0.595313 -1.322916,1.322917 v 15.69376 c 0,0.727604 0.595312,1.322917 1.322916,1.322917 h 5.2501273 c -0.7276042,0 -1.3229167,-0.595313 -1.3229167,-1.322917 z"
           id="path431" />
        <circle
           style="fill:#b7092b;stroke-width:0.26458332"
           cx="22.477865"
           cy="55.016663"
           r="6.21665"
           id="circle433" />
        <path
           inkscape:connector-curvature="0"
           style="fill:#eef6ff;stroke-width:0.26458332"
           d="m 22.66704,58.411531 c -0.730779,0 -1.322917,-0.592138 -1.322917,-1.322917 v -2.877079 c -0.545042,-0.163512 -0.942181,-0.669131 -0.942181,-1.267354 0,-0.730779 0.592137,-1.322917 1.322916,-1.322917 h 0.942182 c 0.730779,0 1.322916,0.592138 1.322916,1.322917 v 4.144433 c 0,0.730779 -0.592137,1.322917 -1.322916,1.322917 z"
           id="path435" />
        <g
           id="g441"
           transform="matrix(0.26458333,0,0,0.26458333,-100.99524,40.278577)">
          <path
             inkscape:connector-curvature="0"
             style="fill:#db722c"
             d="m 420.718,80.223 h -71.596 c -4.143,0 -7.5,-3.358 -7.5,-7.5 0,-4.143 3.357,-7.5 7.5,-7.5 h 71.596 c 4.143,0 7.5,3.357 7.5,7.5 0,4.142 -3.358,7.5 -7.5,7.5 z"
             id="path437" />
          <path
             inkscape:connector-curvature="0"
             style="fill:#db722c"
             d="m 442.363,103.414 h -93.241 c -4.143,0 -7.5,-3.357 -7.5,-7.5 0,-4.143 3.357,-7.5 7.5,-7.5 h 93.241 c 4.143,0 7.5,3.357 7.5,7.5 0,4.143 -3.357,7.5 -7.5,7.5 z"
             id="path439" />
        </g>
        <circle
           style="fill:#ef8318;stroke-width:0.26458332"
           cx="-49.517906"
           cy="70.970245"
           r="9.8768959"
           id="circle443" />
        <circle
           style="fill:#ff9518;stroke-width:0.26458332"
           cx="-49.517906"
           cy="70.970245"
           r="7.9375"
           id="circle445" />
        <path
           inkscape:connector-curvature="0"
           style="fill:#ffffff;stroke-width:0.26458332"
           d="m -46.406937,73.224758 h -1.762918 v -0.424392 c 1.502833,-0.550069 2.577571,-1.989137 2.577571,-3.682206 0,-2.167202 -1.757363,-3.924565 -3.924565,-3.924565 -2.167467,0 -3.924565,1.757363 -3.924565,3.924565 0,1.693333 1.074738,3.132137 2.577571,3.682206 v 0.424392 h -1.762918 c -0.704057,0 -1.27979,0.576262 -1.27979,1.280319 v 3.077897 c 1.257565,0.836348 2.766219,1.324769 4.389702,1.324769 1.623483,0 3.132402,-0.488421 4.389702,-1.324769 v -3.078427 c 2.65e-4,-0.703791 -0.575733,-1.279789 -1.27979,-1.279789 z"
           id="path447" />
        <path
           inkscape:connector-curvature="0"
           style="fill:#ff9518;stroke-width:0.26458332"
           d="m -58.397324,96.737749 c 0,0.727604 -0.595312,1.322917 -1.322917,1.322917 h -7.672916 c -0.727604,0 -1.322917,-0.595313 -1.322917,-1.322917 v -7.672916 c 0,-0.727605 0.595313,-1.322917 1.322917,-1.322917 h 7.672916 c 0.727605,0 1.322917,0.595312 1.322917,1.322917 z"
           id="path449" />
        <path
           inkscape:connector-curvature="0"
           style="fill:#ef8318;stroke-width:0.26458332"
           d="m -65.406401,96.737749 v -7.672916 c 0,-0.727605 0.595313,-1.322917 1.322917,-1.322917 h -3.309673 c -0.727604,0 -1.322917,0.595312 -1.322917,1.322917 v 7.672916 c 0,0.727604 0.595313,1.322917 1.322917,1.322917 h 3.309673 c -0.727604,0 -1.322917,-0.595313 -1.322917,-1.322917 z"
           id="path451" />
        <g
           id="g457"
           transform="matrix(0.26458333,0,0,0.26458333,-100.99524,40.278577)">
          <path
             inkscape:connector-curvature="0"
             style="fill:#1a2b63"
             d="m 227.666,198.889 c 0,-2.823 0.963,-5.419 2.565,-7.5 h -53.565 c -4.142,0 -7.5,3.357 -7.5,7.5 0,4.143 3.358,7.5 7.5,7.5 h 53.565 c -1.601,-2.081 -2.565,-4.677 -2.565,-7.5 z"
             id="path453" />
          <path
             inkscape:connector-curvature="0"
             style="fill:#1a2b63"
             d="m 262,191.389 h -12.232 c 1.602,2.081 2.565,4.677 2.565,7.5 0,2.823 -0.963,5.419 -2.565,7.5 H 262 c 4.143,0 7.5,-3.357 7.5,-7.5 0,-4.143 -3.357,-7.5 -7.5,-7.5 z"
             id="path455" />
        </g>
        <circle
           style="fill:#ff9518;stroke-width:0.26458332"
           cx="-37.495239"
           cy="92.901558"
           r="3.5276897"
           id="circle459" />
      </g>
    </g>
    <text
       id="text455"
       y="192.56866"
       x="275.72961"
       style="font-style:normal;font-weight:normal;font-size:40px;line-height:1.25;font-family:sans-serif;letter-spacing:0px;word-spacing:0px;fill:#000000;fill-opacity:1;stroke:none"
       xml:space="preserve"><tspan
         style="font-style:normal;font-variant:normal;font-weight:normal;font-stretch:normal;font-family:Dyuthi;-inkscape-font-specification:Dyuthi;fill:#000000"
         y="192.56866"
         x="275.72961"
         id="tspan453"
         sodipodi:role="line">UI / UX Design </tspan></text>
    <text
       id="text459"
       y="188.56866"
       x="275.72961"
       style="font-style:normal;font-weight:normal;font-size:40px;line-height:1.25;font-family:sans-serif;letter-spacing:0px;word-spacing:0px;fill:#ffffff;fill-opacity:1;stroke:none"
       xml:space="preserve"><tspan
         style="font-style:normal;font-variant:normal;font-weight:normal;font-stretch:normal;font-family:Dyuthi;-inkscape-font-specification:Dyuthi;fill:#ffffff"
         y="188.56866"
         x="275.72961"
         id="tspan457"
         sodipodi:role="line">UI / UX Design </tspan></text>
    <text
       xml:space="preserve"
       style="font-style:normal;font-weight:normal;font-size:40px;line-height:1.25;font-family:sans-serif;letter-spacing:0px;word-spacing:0px;fill:#ff0000;fill-opacity:1;stroke:none"
       x="275.72961"
       y="190.56866"
       id="text67"><tspan
         sodipodi:role="line"
         id="tspan65"
         x="275.72961"
         y="190.56866"
         style="font-style:normal;font-variant:normal;font-weight:normal;font-stretch:normal;font-family:Dyuthi;-inkscape-font-specification:Dyuthi;fill:#ff0000">UI / UX Design </tspan></text>
  </g>
</svg>
