<?xml version="1.0" encoding="UTF-8" standalone="no"?>
<!-- Created with Inkscape (http://www.inkscape.org/) -->

<svg
   xmlns:dc="http://purl.org/dc/elements/1.1/"
   xmlns:cc="http://creativecommons.org/ns#"
   xmlns:rdf="http://www.w3.org/1999/02/22-rdf-syntax-ns#"
   xmlns:svg="http://www.w3.org/2000/svg"
   xmlns="http://www.w3.org/2000/svg"
   xmlns:sodipodi="http://sodipodi.sourceforge.net/DTD/sodipodi-0.dtd"
   xmlns:inkscape="http://www.inkscape.org/namespaces/inkscape"
   width="120mm"
   height="120mm"
   viewBox="-60 -60 120 120"
   sodipodi:docname="softles_wordpress.svg"
   version="1.1"
   id="svg8668"
   inkscape:version="0.92.4 (5da689c313, 2019-01-14)">
  <defs
     id="defs8670" />
  <sodipodi:namedview
     pagecolor="#ffffff"
     bordercolor="#666666"
     borderopacity="1.0"
     inkscape:pageopacity="0.0"
     inkscape:pageshadow="2"
     inkscape:zoom="1"
     inkscape:cx="-4.67548"
     inkscape:cy="278.85349"
     inkscape:document-units="mm"
     inkscape:current-layer="Template"
     showgrid="false"
     units="mm"
     showguides="true"
     inkscape:guide-bbox="true"
     inkscape:snap-global="false"
     inkscape:snap-bbox="true"
     inkscape:snap-bbox-midpoints="true"
     inkscape:window-width="1920"
     inkscape:window-height="986"
     inkscape:window-x="-11"
     inkscape:window-y="-11"
     inkscape:window-maximized="1"
     inkscape:bbox-paths="true"
     inkscape:bbox-nodes="true"
     inkscape:snap-bbox-edge-midpoints="true"
     inkscape:snap-grids="true"
     id="namedview8658">
    <sodipodi:guide
       orientation="1,0"
       position="226.771653543,226.771653543"
       id="guide2827"
       inkscape:locked="false" />
    <sodipodi:guide
       orientation="0,1"
       position="226.771653543,226.771653543"
       id="guide2829"
       inkscape:locked="false" />
    <inkscape:grid
       type="xygrid"
       id="grid3072"
       empspacing="10"
       visible="true"
       enabled="true"
       snapvisiblegridlinesonly="true"
       units="mm"
       dotted="false"
       spacingx="0.1mm"
       spacingy="0.1mm" />
  </sodipodi:namedview>
  <metadata
     id="metadata2822">
    <rdf:RDF>
      <cc:Work
         rdf:about="">
        <dc:format>image/svg+xml</dc:format>
        <dc:type
           rdf:resource="http://purl.org/dc/dcmitype/StillImage" />
        <dc:title />
      </cc:Work>
    </rdf:RDF>
  </metadata>
  <g
     inkscape:label="Layer 1"
     inkscape:groupmode="layer"
     id="Template"
     style="fill:none;stroke:black;stroke-width:0.05">
    <circle
       id="circle12159"
       r="58.318985"
       cy="1.1303912"
       cx="0.7701785"
       style="fill:#ff0000;fill-opacity:1;stroke:none;stroke-width:0.23803666" />
    <circle
       style="fill:#333333;fill-opacity:1;stroke:none;stroke-width:0.23803666"
       cx="0.7701785"
       cy="-1.4246966"
       r="58.318985"
       id="circle9280" />
    <g
       id="g12314"
       transform="matrix(0.16953322,0,0,0.16953322,-42.641854,-43.55911)" />
    <g
       id="g12316"
       transform="matrix(0.16953322,0,0,0.16953322,-42.641854,-43.55911)" />
    <g
       id="g12318"
       transform="matrix(0.16953322,0,0,0.16953322,-42.641854,-43.55911)" />
    <g
       id="g12320"
       transform="matrix(0.16953322,0,0,0.16953322,-42.641854,-43.55911)" />
    <g
       id="g12322"
       transform="matrix(0.16953322,0,0,0.16953322,-42.641854,-43.55911)" />
    <g
       id="g12324"
       transform="matrix(0.16953322,0,0,0.16953322,-42.641854,-43.55911)" />
    <g
       id="g12326"
       transform="matrix(0.16953322,0,0,0.16953322,-42.641854,-43.55911)" />
    <g
       id="g12328"
       transform="matrix(0.16953322,0,0,0.16953322,-42.641854,-43.55911)" />
    <g
       id="g12330"
       transform="matrix(0.16953322,0,0,0.16953322,-42.641854,-43.55911)" />
    <g
       id="g12332"
       transform="matrix(0.16953322,0,0,0.16953322,-42.641854,-43.55911)" />
    <g
       id="g12334"
       transform="matrix(0.16953322,0,0,0.16953322,-42.641854,-43.55911)" />
    <g
       id="g12336"
       transform="matrix(0.16953322,0,0,0.16953322,-42.641854,-43.55911)" />
    <g
       id="g12338"
       transform="matrix(0.16953322,0,0,0.16953322,-42.641854,-43.55911)" />
    <g
       id="g12340"
       transform="matrix(0.16953322,0,0,0.16953322,-42.641854,-43.55911)" />
    <g
       id="g12342"
       transform="matrix(0.16953322,0,0,0.16953322,-42.641854,-43.55911)" />
    <g
       id="g12453"
       transform="matrix(0.26458333,0,0,0.26458333,-278.15262,-84.06551)" />
    <g
       id="g12455"
       transform="matrix(0.26458333,0,0,0.26458333,-278.15262,-84.06551)" />
    <g
       id="g12457"
       transform="matrix(0.26458333,0,0,0.26458333,-278.15262,-84.06551)" />
    <g
       id="g12459"
       transform="matrix(0.26458333,0,0,0.26458333,-278.15262,-84.06551)" />
    <g
       id="g12461"
       transform="matrix(0.26458333,0,0,0.26458333,-278.15262,-84.06551)" />
    <g
       id="g12463"
       transform="matrix(0.26458333,0,0,0.26458333,-278.15262,-84.06551)" />
    <g
       id="g12465"
       transform="matrix(0.26458333,0,0,0.26458333,-278.15262,-84.06551)" />
    <g
       id="g12467"
       transform="matrix(0.26458333,0,0,0.26458333,-278.15262,-84.06551)" />
    <g
       id="g12469"
       transform="matrix(0.26458333,0,0,0.26458333,-278.15262,-84.06551)" />
    <g
       id="g12471"
       transform="matrix(0.26458333,0,0,0.26458333,-278.15262,-84.06551)" />
    <g
       id="g12473"
       transform="matrix(0.26458333,0,0,0.26458333,-278.15262,-84.06551)" />
    <g
       id="g12475"
       transform="matrix(0.26458333,0,0,0.26458333,-278.15262,-84.06551)" />
    <g
       id="g12477"
       transform="matrix(0.26458333,0,0,0.26458333,-278.15262,-84.06551)" />
    <g
       id="g12479"
       transform="matrix(0.26458333,0,0,0.26458333,-278.15262,-84.06551)" />
    <g
       id="g12481"
       transform="matrix(0.26458333,0,0,0.26458333,-278.15262,-84.06551)" />
    <g
       id="g12727"
       transform="matrix(0.19605329,0,0,0.19605329,-43.113802,-44.031035)"
       style="fill:#ffffff">
      <g
         id="g12667"
         style="fill:#ffffff">
        <path
           id="path12657"
           d="M 134.289,138.16 H 109.567 L 176.966,328.681 214.698,220.856 185.444,138.16 H 159.36 v -18.154 h 115.508 v 18.154 h -27.049 l 67.398,190.521 24.227,-69.234 c 31.781,-88.702 -26.048,-116.333 -26.048,-136.129 0,-19.796 16.048,-35.843 35.843,-35.843 1.071,0 2.111,0.058 3.13,0.153 -33.541,-31.663 -78.768,-51.08 -128.534,-51.08 -65.027,0 -122.306,33.146 -155.884,83.458 h 66.336 v 18.154 z"
           style="fill:#ffffff"
           inkscape:connector-curvature="0" />
        <path
           id="path12659"
           d="m 36.548,223.837 c 0,71.704 40.302,133.986 99.483,165.458 L 51.511,150.376 c -9.628,22.556 -14.963,47.385 -14.963,73.461 z"
           style="fill:#ffffff"
           inkscape:connector-curvature="0" />
        <path
           id="path12661"
           d="m 386.833,131.547 c 2.679,15.774 1.868,33.503 -2.243,51.301 h 0.745 l -2.832,8.092 v 0 c -1.678,5.843 -3.791,11.82 -6.191,17.693 l -64.444,180.541 c 59.057,-31.51 99.256,-93.725 99.256,-165.338 0,-33.557 -8.834,-65.048 -24.291,-92.289 z"
           style="fill:#ffffff"
           inkscape:connector-curvature="0" />
        <path
           id="path12663"
           d="m 166.075,402.033 c 18.195,5.894 37.603,9.091 57.762,9.091 19.228,0 37.777,-2.902 55.239,-8.285 L 224.292,247.977 Z"
           style="fill:#ffffff"
           inkscape:connector-curvature="0" />
        <path
           id="path12665"
           d="M 382.113,65.56 C 339.836,23.283 283.625,0 223.836,0 164.047,0 107.837,23.283 65.56,65.56 23.283,107.837 0,164.047 0,223.837 c 0,59.789 23.283,115.999 65.56,158.276 42.277,42.277 98.488,65.56 158.277,65.56 59.789,0 115.999,-23.283 158.277,-65.56 42.277,-42.277 65.56,-98.488 65.56,-158.276 -10e-4,-59.79 -23.284,-116 -65.561,-158.277 z M 223.836,431.883 C 109.119,431.883 15.79,338.554 15.79,223.837 15.79,109.12 109.119,15.79 223.836,15.79 c 114.717,0 208.046,93.33 208.046,208.047 0,114.717 -93.328,208.046 -208.046,208.046 z"
           style="fill:#ffffff"
           inkscape:connector-curvature="0" />
      </g>
      <g
         id="g12669"
         style="fill:#ffffff" />
      <g
         id="g12671"
         style="fill:#ffffff" />
      <g
         id="g12673"
         style="fill:#ffffff" />
      <g
         id="g12675"
         style="fill:#ffffff" />
      <g
         id="g12677"
         style="fill:#ffffff" />
      <g
         id="g12679"
         style="fill:#ffffff" />
      <g
         id="g12681"
         style="fill:#ffffff" />
      <g
         id="g12683"
         style="fill:#ffffff" />
      <g
         id="g12685"
         style="fill:#ffffff" />
      <g
         id="g12687"
         style="fill:#ffffff" />
      <g
         id="g12689"
         style="fill:#ffffff" />
      <g
         id="g12691"
         style="fill:#ffffff" />
      <g
         id="g12693"
         style="fill:#ffffff" />
      <g
         id="g12695"
         style="fill:#ffffff" />
      <g
         id="g12697"
         style="fill:#ffffff" />
    </g>
  </g>
</svg>
