<?xml version="1.0" encoding="UTF-8" standalone="no"?>
<!-- Created with Inkscape (http://www.inkscape.org/) -->

<svg
   xmlns:dc="http://purl.org/dc/elements/1.1/"
   xmlns:cc="http://creativecommons.org/ns#"
   xmlns:rdf="http://www.w3.org/1999/02/22-rdf-syntax-ns#"
   xmlns:svg="http://www.w3.org/2000/svg"
   xmlns="http://www.w3.org/2000/svg"
   xmlns:xlink="http://www.w3.org/1999/xlink"
   xmlns:sodipodi="http://sodipodi.sourceforge.net/DTD/sodipodi-0.dtd"
   xmlns:inkscape="http://www.inkscape.org/namespaces/inkscape"
   width="120mm"
   height="120mm"
   viewBox="-60 -60 120 120"
   sodipodi:docname="workspace.svg"
   version="1.1"
   id="svg8668"
   inkscape:version="0.92.4 (f8dce91, 2019-08-02)">
  <defs
     id="defs8670">
    <linearGradient
       inkscape:collect="always"
       id="linearGradient8215">
      <stop
         style="stop-color:#ffaaaa;stop-opacity:1;"
         offset="0"
         id="stop8211" />
      <stop
         style="stop-color:#ffaaaa;stop-opacity:0;"
         offset="1"
         id="stop8213" />
    </linearGradient>
    <linearGradient
       inkscape:collect="always"
       xlink:href="#linearGradient8215"
       id="linearGradient9282"
       gradientUnits="userSpaceOnUse"
       gradientTransform="translate(-249.75969,-197.99711)"
       x1="80.886902"
       y1="150.34525"
       x2="182.94048"
       y2="242.57143" />
  </defs>
  <sodipodi:namedview
     pagecolor="#ffffff"
     bordercolor="#666666"
     borderopacity="1.0"
     inkscape:pageopacity="0.0"
     inkscape:pageshadow="2"
     inkscape:zoom="0.5"
     inkscape:cx="134.38724"
     inkscape:cy="123.43566"
     inkscape:document-units="mm"
     inkscape:current-layer="Template"
     showgrid="false"
     units="mm"
     showguides="true"
     inkscape:guide-bbox="true"
     inkscape:snap-global="true"
     inkscape:snap-bbox="true"
     inkscape:snap-bbox-midpoints="true"
     inkscape:window-width="1280"
     inkscape:window-height="751"
     inkscape:window-x="0"
     inkscape:window-y="25"
     inkscape:window-maximized="1"
     inkscape:bbox-paths="true"
     inkscape:bbox-nodes="true"
     inkscape:snap-bbox-edge-midpoints="true"
     inkscape:snap-grids="true"
     id="namedview8658">
    <sodipodi:guide
       orientation="1,0"
       position="226.771653543,226.771653543"
       id="guide2827"
       inkscape:locked="false" />
    <sodipodi:guide
       orientation="0,1"
       position="226.771653543,226.771653543"
       id="guide2829"
       inkscape:locked="false" />
    <inkscape:grid
       type="xygrid"
       id="grid3072"
       empspacing="10"
       visible="true"
       enabled="true"
       snapvisiblegridlinesonly="true"
       units="mm"
       dotted="false"
       spacingx="0.1mm"
       spacingy="0.1mm" />
  </sodipodi:namedview>
  <metadata
     id="metadata2822">
    <rdf:RDF>
      <cc:Work
         rdf:about="">
        <dc:format>image/svg+xml</dc:format>
        <dc:type
           rdf:resource="http://purl.org/dc/dcmitype/StillImage" />
        <dc:title></dc:title>
      </cc:Work>
    </rdf:RDF>
  </metadata>
  <g
     inkscape:label="Layer 1"
     inkscape:groupmode="layer"
     id="Template"
     style="fill:none;stroke:black;stroke-width:0.05">
    <g
       id="g11734"
       transform="matrix(0.85088354,0,0,0.85088354,134.67597,22.093146)">
      <circle
         id="circle9280"
         r="70.97361"
         cy="-25.724997"
         cx="-157.89583"
         style="fill:url(#linearGradient9282);fill-opacity:1;stroke:none;stroke-width:0.2896882" />
      <g
         transform="translate(-470.10416,-134.49246)"
         id="g7072">
        <path
           inkscape:connector-curvature="0"
           style="fill:#c8cacc;stroke-width:0.26458332"
           d="m 302.31027,135.65455 -2.89692,10.27906 -9.73746,7.38003 v 1.58141 h 22.53297 22.53218 v -1.58141 l -9.73693,-7.38003 -2.89692,-10.27906 -9.89833,-0.13123 z"
           id="path174" />
        <path
           inkscape:connector-curvature="0"
           style="fill:#ffffff;stroke-width:0.26458332"
           d="m 289.67589,154.10448 v 0.79084 h 22.53297 22.53192 v -0.79084 z"
           id="path176" />
        <path
           inkscape:connector-curvature="0"
           style="fill:#2e4c89;fill-opacity:1;stroke-width:0.26458332"
           d="m 261.93274,55.001351 h 100.55092 c 3.30359,0 6.00657,2.702983 6.00657,6.006041 V 122.94767 H 255.92696 V 61.007392 c 0,-3.303058 2.70272,-6.006041 6.00578,-6.006041 z"
           id="path178" />
        <path
           inkscape:connector-curvature="0"
           style="fill:#5dc1d8;fill-opacity:1;stroke-width:0.26458332"
           d="M 260.00498,118.86939 H 364.41115 V 61.007392 c 0,-1.052512 -0.8755,-1.928018 -1.92775,-1.928018 H 261.93274 c -1.05225,0 -1.92776,0.875506 -1.92776,1.928018 z"
           id="path180" />
        <path
           inkscape:connector-curvature="0"
           style="fill:#ffaaaa;stroke-width:0.26458332"
           d="m 293.06176,122.94794 h 47.22521 L 304.58225,89.726855 287.72141,106.46493 Z"
           id="path182" />
        <path
           inkscape:connector-curvature="0"
           style="fill:#807d7d;stroke-width:0.26458332"
           d="m 293.06176,122.94794 h 47.22521 l -4.38335,-4.07855 h -44.16319 z"
           id="path184" />
        <path
           inkscape:connector-curvature="0"
           style="fill:#ffffff;stroke-width:0.26458332"
           d="m 299.51733,101.48653 c 2.23705,-2.221182 2.21112,-5.874813 -0.059,-8.160813 -1.53565,-1.547019 -3.7047,-2.071423 -5.64039,-1.561042 l -1.8841,-1.897856 c -0.22516,-0.226483 -0.58949,-0.232039 -0.81095,-0.01191 l -2.96968,2.948252 c -0.22172,0.220133 -0.21908,0.584465 0.006,0.810948 l 1.77429,1.786731 c -0.67336,2.006865 -0.19605,4.335463 1.42399,5.96715 2.2696,2.28653 5.92323,2.33918 8.16028,0.11854 z"
           id="path186" />
        <path
           inkscape:connector-curvature="0"
           style="fill:#fbb429;stroke-width:0.26458332"
           d="m 292.15371,85.607821 -4.29445,-4.325937 c -1.46976,-1.481138 -3.88382,-1.489075 -5.36469,-0.01958 l -3.07737,3.05435 c -1.48088,1.470818 -1.48961,3.885141 -0.0196,5.365485 l 4.29551,4.326731 c -0.99245,3.821906 -0.0389,8.35978 4.02854,12.45738 l 16.86111,-16.738867 c -4.06797,-4.098396 -8.5987,-5.084498 -12.42907,-4.119563 z"
           id="path188" />
        <path
           inkscape:connector-curvature="0"
           style="fill:#f5a209;stroke-width:0.26458332"
           d="m 279.49763,84.23675 -0.0804,0.07964 c -1.48088,1.470819 -1.48961,3.885142 -0.0196,5.365485 l 4.29551,4.326732 c -0.99245,3.821906 -0.0389,8.359773 4.02854,12.457373 l 0.5125,-0.50879 c -3.73036,-4.12062 -4.57914,-8.600281 -3.59092,-12.404725 l -4.50983,-4.542102 c -1.28243,-1.291696 -1.49251,-3.259667 -0.63579,-4.773613 z"
           id="path190" />
        <path
           inkscape:connector-curvature="0"
           style="fill:#ffffff;stroke-width:0.26458332"
           d="m 368.48997,122.94794 v 6.56881 c 0,3.30438 -2.97947,6.00683 -6.62146,6.00683 h -99.32062 c -3.64146,0 -6.62093,-2.70245 -6.62093,-6.00683 v -6.56881 z"
           id="path192" />
        <path
           inkscape:connector-curvature="0"
           style="fill:#0e7886;stroke-width:0.26458332"
           d="M 282.98378,86.440994 265.5443,116.65906 v 34.89854 h 5.86264 l -2.46777,-34.89854 16.28643,-29.045697 c 0.60219,-1.322917 -1.45574,-2.332302 -2.24182,-1.172369 z"
           id="path194" />
        <path
           inkscape:connector-curvature="0"
           style="fill:#807d7d;stroke-width:0.26458332"
           d="m 244.47791,160.50025 h 135.46084 v -5.60493 H 244.47791 Z"
           id="path196" />
        <g
           id="g202"
           transform="matrix(0.26458333,0,0,0.26458333,244.475,41.034526)">
          <path
             inkscape:connector-curvature="0"
             style="fill:#fbb429"
             d="M 168.413,417.725 H 53.022 c -8.515,0 -18.812,12.881 -10.291,12.881 h 132.544 c 8.52,0 1.657,-12.881 -6.862,-12.881 z"
             id="path198" />
          <path
             inkscape:connector-curvature="0"
             style="fill:#fbb429"
             d="m 86.048,276.896 c -5.076,0 -9.191,4.114 -9.191,9.19 0,5.077 4.115,9.191 9.191,9.191 5.076,0 9.19,-4.114 9.19,-9.191 0,-5.076 -4.114,-9.19 -9.19,-9.19 z"
             id="path200" />
        </g>
        <path
           inkscape:connector-curvature="0"
           style="fill:#ffffff;stroke-width:0.26458332"
           d="m 267.24187,115.52796 c -0.66278,0 -1.20015,0.53737 -1.20015,1.20042 0,0.66278 0.53737,1.19988 1.20015,1.19988 0.66304,0 1.19988,-0.5371 1.19988,-1.19988 0,-0.66305 -0.53684,-1.20042 -1.19988,-1.20042 z"
           id="path204" />
        <path
           inkscape:connector-curvature="0"
           style="fill:#ff5b61;stroke-width:0.26458332"
           d="m 285.27428,150.51461 -6.2746,-1.04325 v 2.08624 h 6.2746 z"
           id="path206" />
        <path
           inkscape:connector-curvature="0"
           style="fill:#ffffff;stroke-width:0.26458332"
           d="m 303.53608,138.44908 h 11.28501 c 0.63183,0 1.14856,0.517 1.14856,1.14882 v 14.14807 c 0,0.63182 -0.51673,1.14935 -1.14856,1.14935 h -11.28501 c -0.63182,0 -1.14882,-0.51726 -1.14882,-1.14935 V 139.5979 c -2.6e-4,-0.63182 0.51674,-1.14882 1.14882,-1.14882 z"
           id="path208" />
        <g
           id="g214"
           transform="matrix(0.26458333,0,0,0.26458333,244.475,41.034526)">
          <path
             inkscape:connector-curvature="0"
             style="fill:#ecf0f1"
             d="m 270.217,380.4 h 12.006 c 3.968,0 7.212,2.811 7.212,6.25 v 29.536 c 0,3.437 -3.244,6.251 -7.212,6.251 h -12.006 v -4.971 h 12.006 c 0.676,0 2.158,-0.443 2.158,-1.28 V 386.65 c 0,-0.838 -1.483,-1.28 -2.158,-1.28 h -12.006 z"
             id="path210" />
          <path
             inkscape:connector-curvature="0"
             style="fill:#ecf0f1"
             d="m 264.369,430.34 v -62.159 h 1.505 c 2.388,0 4.342,1.923 4.342,4.271 v 53.615 c 0,2.352 -1.954,4.273 -4.342,4.273 z"
             id="path212" />
        </g>
        <path
           inkscape:connector-curvature="0"
           style="fill:#20d0c2;stroke-width:0.26458332"
           d="m 306.8783,146.15216 h 3.41974 v 3.03821 h -3.41974 z"
           id="path216" />
        <path
           inkscape:connector-curvature="0"
           style="fill:#15bdb1;stroke-width:0.26458332"
           d="m 306.8783,146.15216 h 3.41974 l -0.19023,-0.63024 h -2.95037 z"
           id="path218" />
        <path
           inkscape:connector-curvature="0"
           style="fill:#fbb429;stroke-width:0.26458332"
           d="m 308.72853,138.44908 v 7.3742 c -10e-4,0.10002 -0.23786,0.10478 -0.23945,0 v -7.3742 z"
           id="path220" />
        <path
           inkscape:connector-curvature="0"
           style="fill:#666666;stroke-width:0.26458332"
           d="m 255.32503,162.53357 h 113.7666 v -2.03253 h -113.7666 z"
           id="path222" />
        <path
           inkscape:connector-curvature="0"
           style="fill:#d0d1d4;stroke-width:0.26458332"
           d="m 312.20833,130.87089 c 1.04511,0 1.89733,-0.85276 1.89733,-1.89733 0,-1.04511 -0.85249,-1.89733 -1.89733,-1.89733 -1.0451,0 -1.89732,0.85249 -1.89732,1.89733 -2.7e-4,1.04457 0.85222,1.89733 1.89732,1.89733 z"
           id="path224" />
        <path
           inkscape:connector-curvature="0"
           style="fill:#fe3745;fill-opacity:1;stroke-width:0.26458332"
           d="m 338.76562,94.329017 c -0.81465,-0.648229 -1.8415,-1.150937 -2.74823,-1.595702 -0.54133,-0.265377 -1.05251,-0.515673 -1.42451,-0.75274 -0.86599,-0.55192 -1.49728,-1.964531 -1.40759,-3.14907 0.0384,-0.506148 0.23019,-1.174221 0.92499,-1.481138 0.73924,-0.326496 1.2954,0.261673 1.47875,0.454819 0.38497,0.406664 0.72179,0.997744 0.92393,1.622425 0.15293,0.471487 0.1778,0.80645 0.16272,0.983456 -0.26988,-0.03889 -0.53631,0.117475 -0.62812,0.384175 -0.10319,0.30136 0.0579,0.629444 0.35903,0.732631 0.4752,0.162454 0.91229,0.04339 1.17634,-0.316706 0.39317,1.212585 0.88133,2.334948 1.44965,3.344333 -0.0852,-0.0762 -0.17303,-0.151341 -0.26696,-0.226483 z m 7.86289,20.867953 v 0 h 4.82653 v -0.50615 c -1.41844,-0.0913 -3.27131,-3.26416 -3.3827,-4.97919 l -0.63791,-9.822659 c 2.12751,-0.263789 4.07088,-1.559454 5.62689,-3.570023 -0.0614,0.239448 -0.091,0.48604 -0.0902,0.739511 0.005,0.787929 0.43656,1.458383 1.15464,1.795198 0.29951,0.1397 0.61939,0.208227 0.9353,0.208227 0.48181,0 0.95409,-0.159015 1.32795,-0.467784 0.83449,-0.687387 0.92524,-1.547283 0.58367,-2.040466 -0.28946,-0.417513 -0.81545,-0.523082 -1.27953,-0.255852 -0.27569,0.15875 -0.37094,0.511439 -0.21219,0.787135 0.10027,0.17489 0.2794,0.277283 0.46646,0.288131 -0.05,0.09049 -0.13917,0.205317 -0.29237,0.330994 -0.27384,0.226219 -0.69135,0.268287 -1.03981,0.104775 -0.18256,-0.08493 -0.48816,-0.296598 -0.49027,-0.756179 -0.004,-0.650611 0.34078,-1.22899 1.08426,-1.820334 0.71623,-0.570441 1.68407,-1.044575 2.53735,-1.462616 0.5715,-0.279665 1.11072,-0.544248 1.53723,-0.816504 0.59955,-0.381794 1.12739,-1.029759 1.48564,-1.824567 0.34925,-0.774171 0.50985,-1.620837 0.45217,-2.38416 -0.0884,-1.159934 -0.65961,-2.029354 -1.60893,-2.449513 -1.02526,-0.451908 -2.1082,-0.112977 -2.97154,0.931334 -0.0309,0.03784 -0.0614,0.0762 -0.0918,0.115358 0.14579,-1.067329 0.2249,-2.173023 0.22834,-3.307556 H 346.62771 336.4783 c 0.003,1.134268 0.0826,2.240227 0.22807,3.307556 -0.0299,-0.03916 -0.0606,-0.07779 -0.0921,-0.115358 -0.86307,-1.044046 -1.94654,-1.383242 -2.971,-0.931334 -0.94986,0.420159 -1.52136,1.289579 -1.60893,2.449513 -0.0582,0.763587 0.10239,1.610254 0.45164,2.38416 0.35904,0.794808 0.88635,1.442773 1.4859,1.824567 0.42677,0.272256 0.96599,0.536839 1.53723,0.816504 0.85381,0.418306 1.82165,0.892175 2.53815,1.462616 0.74348,0.591344 1.08823,1.169723 1.08426,1.820334 -0.003,0.459581 -0.30851,0.671512 -0.49027,0.756179 -0.34873,0.163512 -0.7665,0.121179 -1.04035,-0.104775 -0.15319,-0.125677 -0.24156,-0.240506 -0.29236,-0.330994 0.18785,-0.01085 0.36618,-0.113241 0.46725,-0.288131 0.15849,-0.275696 0.0635,-0.628385 -0.21272,-0.787135 -0.46408,-0.26723 -0.99034,-0.161925 -1.279,0.255852 -0.34184,0.493448 -0.25109,1.353343 0.58288,2.040466 0.37465,0.308769 0.84667,0.467784 1.32794,0.467784 0.31671,0 0.63659,-0.06853 0.93531,-0.208227 0.7186,-0.336815 1.15014,-1.007269 1.15464,-1.795198 0.002,-0.253471 -0.0286,-0.500063 -0.09,-0.739511 1.55628,2.010569 3.49964,3.306234 5.62689,3.570023 l -0.63738,9.822659 c -0.11139,1.71503 -1.96479,4.88765 -3.38323,4.97919 v 0.50615 z m 7.86315,-20.867953 v 0 c -0.0939,0.07514 -0.18124,0.150283 -0.26591,0.226483 0.56753,-1.009385 1.05595,-2.131748 1.44886,-3.344333 0.26485,0.359833 0.70115,0.47916 1.17634,0.316706 0.30162,-0.103187 0.46223,-0.431271 0.35904,-0.732631 -0.091,-0.2667 -0.35825,-0.423333 -0.62759,-0.384175 -0.0156,-0.176742 0.01,-0.511704 0.16272,-0.983456 0.20187,-0.624681 0.53895,-1.215761 0.92392,-1.622425 0.18283,-0.193146 0.73925,-0.781315 1.47876,-0.454819 0.69453,0.306917 0.88662,0.97499 0.92472,1.481138 0.0902,1.184539 -0.54108,2.596885 -1.40732,3.14907 -0.3728,0.237332 -0.88398,0.487363 -1.42531,0.75274 -0.90594,0.444765 -1.93358,0.947737 -2.74823,1.595702 z"
           id="path226" />
        <path
           inkscape:connector-curvature="0"
           style="fill:#ff5555;stroke-width:0.26458332"
           d="m 354.65332,84.03408 c 0,0 1.96956,13.330502 -7.58111,15.685293 l 0.58606,9.974527 c -0.0241,2.65351 2.15608,5.50333 3.79703,5.50333 v -0.50614 c -1.41843,-0.0913 -3.27131,-3.26417 -3.3827,-4.9792 l -0.63791,-9.822654 c 2.11508,-0.261938 4.04813,-1.544373 5.60044,-3.535098 0.009,-0.01402 0.0177,-0.02593 0.0265,-0.03493 0,0 0.74321,-0.871802 1.29513,-1.878806 -0.045,0.0381 -0.0886,0.07673 -0.13123,0.115093 0.16166,-0.287337 0.31697,-0.5842 0.4654,-0.889529 0.49715,-1.183216 0.98372,-2.454804 0.98372,-2.454804 0.29369,-0.93689 0.68448,-2.506133 0.87577,-3.869796 0.14579,-1.067329 0.2249,-2.173023 0.22834,-3.307556 h -2.1254 z"
           id="path228" />
        <g
           id="g234"
           transform="matrix(0.26458333,0,0,0.26458333,244.475,41.034526)">
          <path
             inkscape:connector-curvature="0"
             style="fill:#666666"
             d="m 412.374,313.639 h -52.56 v -29.478 c 0,-2.128 1.734,-3.862 3.858,-3.862 h 44.841 c 2.128,0 3.862,1.734 3.862,3.862 z"
             id="path230" />
          <path
             inkscape:connector-curvature="0"
             style="fill:#666666"
             d="M 417.243,319.593 H 354.94 v -4.983 c 0,-1.934 1.572,-3.507 3.507,-3.507 h 55.29 c 1.937,0 3.506,1.572 3.506,3.507 z"
             id="path232" />
        </g>
        <path
           inkscape:connector-curvature="0"
           style="fill:#fe3745;fill-opacity:1;stroke-width:0.26458332"
           d="m 357.02743,84.03408 h -20.79731 c -0.24924,0 -0.45165,-0.202407 -0.45165,-0.451909 v -0.0093 c 0,-0.249238 0.20241,-0.451379 0.45165,-0.451379 h 20.79731 c 0.24923,0 0.45137,0.202141 0.45137,0.451379 v 0.0093 c 0,0.249502 -0.20214,0.451909 -0.45137,0.451909 z"
           id="path236" />
        <path
           inkscape:connector-curvature="0"
           style="fill:#20d0c2;stroke-width:0.26458332"
           d="m 327.18666,134.39831 h 36.69771 v 1.23825 c -1.73752,2.21456 -1.45045,4.67783 0,6.5233 v 1.23772 h -36.69771 c -5.73273,0 -5.73299,-8.99927 0,-8.99927 z"
           id="path238" />
        <path
           inkscape:connector-curvature="0"
           style="fill:#ffffff;stroke-width:0.26458332"
           d="m 363.8841,142.15986 c -1.48113,-2.17408 -1.59332,-4.34869 0,-6.5233 h -36.69797 c -1.72561,0 -3.14087,1.47003 -3.14087,3.26152 0,1.79176 1.41552,3.26152 3.14087,3.26152 h 36.69797 z"
           id="path240" />
        <g
           id="g246"
           transform="matrix(0.26458333,0,0,0.26458333,244.475,41.034526)">
          <path
             inkscape:connector-curvature="0"
             style="fill:#ecf0f1"
             d="m 449.981,359.535 c 0.402,-0.661 0.845,-1.324 1.33,-1.984 H 312.609 c -13.264,0 -16.983,19.011 -3.606,24.063 -9.134,-4.445 -5.724,-19.604 3.864,-22.079 z"
             id="path242" />
          <path
             inkscape:connector-curvature="0"
             style="fill:#ecf0f1"
             d="m 448.609,361.882 h -145.01 c 0.269,-0.324 0.55,-0.635 0.85,-0.93 h 144.63 c -0.165,0.309 -0.322,0.62 -0.47,0.93 z m -146.222,1.756 v 0 c -0.172,0.302 -0.335,0.613 -0.481,0.93 h 145.666 c 0.094,-0.31 0.196,-0.621 0.309,-0.93 z m -1.141,2.685 v 0 c -0.091,0.305 -0.169,0.617 -0.236,0.931 h 145.958 c 0.046,-0.311 0.1,-0.62 0.16,-0.931 z m -0.478,2.685 v 0 c -0.02,0.288 -0.029,0.578 -0.029,0.87 v 0.063 h 146.046 c -0.002,-0.311 0.005,-0.62 0.019,-0.932 H 300.768 Z m 0.1,2.688 v 0 c 0.045,0.314 0.101,0.625 0.17,0.929 h 145.966 c -0.048,-0.309 -0.091,-0.618 -0.121,-0.929 z m 0.696,2.685 v 0 c 0.121,0.316 0.255,0.627 0.401,0.93 h 145.663 c -0.096,-0.308 -0.183,-0.619 -0.264,-0.93 z m 1.422,2.685 v 0 c 0.225,0.323 0.463,0.633 0.714,0.931 h 144.983 c -0.146,-0.307 -0.285,-0.619 -0.416,-0.931 z m 2.545,2.687 v 0 c 0.441,0.342 0.905,0.654 1.39,0.931 h 143.29 c -0.204,-0.306 -0.4,-0.618 -0.588,-0.931 z"
             id="path244" />
        </g>
        <path
           inkscape:connector-curvature="0"
           style="fill:#ff5b61;stroke-width:0.26458332"
           d="m 367.03106,143.39758 h -42.56855 v 1.58115 c 2.0156,2.82972 1.68248,5.97721 0,8.33517 v 1.58142 h 42.56855 c 6.6503,2.6e-4 6.6503,-11.49774 0,-11.49774 z"
           id="path248" />
        <path
           inkscape:connector-curvature="0"
           style="fill:#ffffff;stroke-width:0.26458332"
           d="m 324.46251,153.31417 c 1.71847,-2.77866 1.84838,-5.55705 0,-8.33517 h 42.56855 c 2.00236,0 3.64463,1.8788 3.64463,4.16798 0,2.28891 -1.64253,4.16719 -3.64463,4.16719 z"
           id="path250" />
        <g
           id="g256"
           transform="matrix(0.26458333,0,0,0.26458333,244.475,41.034526)">
          <path
             inkscape:connector-curvature="0"
             style="fill:#ecf0f1"
             d="m 303.857,395.397 c -0.466,-0.846 -0.978,-1.693 -1.542,-2.537 h 160.889 c 15.389,0 19.703,24.292 4.183,30.748 10.598,-5.683 6.641,-25.05 -4.48,-28.211 z"
             id="path252" />
          <path
             inkscape:connector-curvature="0"
             style="fill:#ecf0f1"
             d="m 305.45,398.395 h 168.21 c -0.312,-0.415 -0.642,-0.812 -0.987,-1.188 H 304.904 c 0.192,0.394 0.375,0.792 0.546,1.188 z m 169.613,2.243 v 0 c 0.2,0.387 0.387,0.784 0.559,1.19 h -168.97 c -0.11,-0.398 -0.229,-0.793 -0.358,-1.19 z m 1.325,3.431 v 0 c 0.103,0.391 0.193,0.789 0.272,1.189 H 307.35 c -0.052,-0.395 -0.114,-0.792 -0.186,-1.189 z m 0.555,3.433 v 0 c 0.022,0.366 0.035,0.737 0.035,1.112 l -0.002,0.078 H 307.568 c 0.001,-0.396 -0.006,-0.793 -0.022,-1.189 h 169.397 z m -0.118,3.431 v 0 c -0.051,0.401 -0.117,0.798 -0.196,1.189 H 307.313 c 0.057,-0.394 0.104,-0.792 0.142,-1.189 z m -0.806,3.433 v 0 c -0.142,0.405 -0.298,0.8 -0.464,1.188 H 306.586 c 0.112,-0.394 0.213,-0.789 0.306,-1.188 z m -1.649,3.431 v 0 c -0.262,0.413 -0.539,0.81 -0.832,1.19 H 305.362 c 0.171,-0.394 0.332,-0.791 0.482,-1.19 z m -2.952,3.431 v 0 c -0.512,0.438 -1.051,0.836 -1.614,1.189 H 303.592 c 0.237,-0.391 0.463,-0.786 0.681,-1.189 z"
             id="path254" />
        </g>
        <path
           inkscape:connector-curvature="0"
           style="fill:#fbb429;stroke-width:0.26458332"
           d="m 360.56358,125.38422 h -28.33529 v 1.23746 c 1.34171,2.21456 1.11999,4.67783 0,6.52356 v 1.23746 h 28.33529 c 4.42727,2.6e-4 4.42754,-8.99848 0,-8.99848 z"
           id="path258" />
        <path
           inkscape:connector-curvature="0"
           style="fill:#ffffff;stroke-width:0.26458332"
           d="m 332.22829,133.14524 c 1.14406,-2.17434 1.23032,-4.34922 0,-6.52356 h 28.33582 c 1.33191,0 2.4257,1.47055 2.4257,3.26231 0,1.79149 -1.09379,3.26125 -2.4257,3.26125 z"
           id="path260" />
        <g
           id="g266"
           transform="matrix(0.26458333,0,0,0.26458333,244.475,41.034526)">
          <path
             inkscape:connector-curvature="0"
             style="fill:#ecf0f1"
             d="m 332.692,325.465 c -0.309,-0.663 -0.65,-1.325 -1.026,-1.986 h 107.096 c 10.241,0 13.114,19.011 2.783,24.064 7.055,-4.446 4.42,-19.604 -2.982,-22.078 z"
             id="path262" />
          <path
             inkscape:connector-curvature="0"
             style="fill:#ecf0f1"
             d="m 333.753,327.812 h 111.968 c -0.207,-0.327 -0.427,-0.635 -0.656,-0.932 H 333.39 c 0.128,0.311 0.248,0.62 0.363,0.932 z m 112.902,1.754 v 0 c 0.134,0.304 0.257,0.613 0.371,0.932 H 334.553 c -0.073,-0.312 -0.151,-0.621 -0.238,-0.932 z m 0.882,2.687 v 0 c 0.068,0.307 0.13,0.615 0.18,0.931 h -112.7 c -0.034,-0.311 -0.075,-0.62 -0.124,-0.931 z m 0.369,2.686 v 0 c 0.014,0.286 0.025,0.578 0.025,0.87 l -10e-4,0.06 H 335.162 c 0.001,-0.309 -0.005,-0.62 -0.015,-0.93 z m -0.076,2.686 v 0 c -0.035,0.314 -0.08,0.623 -0.132,0.93 H 334.993 c 0.037,-0.309 0.07,-0.62 0.093,-0.93 z m -0.539,2.684 v 0 c -0.093,0.318 -0.198,0.627 -0.308,0.932 H 334.508 c 0.074,-0.309 0.143,-0.62 0.205,-0.932 z m -1.098,2.687 v 0 c -0.172,0.322 -0.357,0.634 -0.552,0.932 H 333.696 c 0.113,-0.308 0.219,-0.619 0.321,-0.932 z m -1.963,2.687 v 0 c -0.341,0.342 -0.699,0.653 -1.074,0.929 H 332.517 c 0.157,-0.307 0.308,-0.615 0.451,-0.929 z"
             id="path264" />
        </g>
        <path
           inkscape:connector-curvature="0"
           style="fill:#ffffff;stroke-width:0.26458332"
           d="m 283.97729,86.537832 c -0.40481,0 -0.73289,0.328083 -0.73289,0.73316 0,0.404548 0.32808,0.732631 0.73289,0.732631 0.40508,0 0.73316,-0.328083 0.73316,-0.732631 0,-0.405077 -0.32808,-0.73316 -0.73316,-0.73316 z"
           id="path268" />
      </g>
    </g>
  </g>
</svg>
